<svg width="163" height="44" viewBox="0 0 163 44" fill="none" xmlns="http://www.w3.org/2000/svg">
<path d="M13.4264 1.68529V5.35472H5.00787V10.5628H12.0164V14.246H5.00787V22.2491H0.226074V1.68529H13.4264Z" fill="white"/>
<path d="M22.0408 14.6445V22.2546H17.2866V1.68529H23.9558C25.4375 1.68529 26.704 1.83749 27.7497 2.14466C28.7955 2.44906 29.6509 2.87523 30.3103 3.42038C30.9753 3.96554 31.4527 4.61032 31.7534 5.35472C32.0542 6.09912 32.2032 6.90717 32.2032 7.78441C32.2032 8.45409 32.1176 9.08227 31.9355 9.67447C31.7589 10.2694 31.4968 10.8174 31.1436 11.321C30.7904 11.8247 30.36 12.273 29.8495 12.6687C29.3391 13.0644 28.7513 13.3909 28.0808 13.6428C28.4009 13.8033 28.6962 13.9998 28.9748 14.235C29.2508 14.473 29.4963 14.758 29.7005 15.0984L34.0629 22.2546H29.7585C28.9611 22.2546 28.3871 21.953 28.0395 21.3525L24.6318 15.3834C24.4828 15.1205 24.3062 14.9296 24.1075 14.8189C23.9061 14.7054 23.6191 14.6501 23.2577 14.6501H22.0436L22.0408 14.6445ZM22.0408 11.3542H23.9558C24.6014 11.3542 25.156 11.274 25.6085 11.1079C26.0611 10.9447 26.4363 10.715 26.726 10.4216C27.0185 10.1311 27.2282 9.78793 27.3607 9.39774C27.4904 9.00755 27.5566 8.58692 27.5566 8.13585C27.5566 7.23372 27.2641 6.52529 26.6764 6.01887C26.0887 5.50969 25.1809 5.25787 23.953 5.25787H22.0381V11.3542H22.0408Z" fill="white"/>
<path d="M63.6007 1.71296C63.7387 1.73233 63.8684 1.76831 63.9788 1.81812C64.0946 1.8707 64.2023 1.94265 64.3043 2.0395C64.4092 2.13359 64.5251 2.26089 64.6575 2.42139L74.3977 14.7718C74.3591 14.3761 74.3315 13.9942 74.3122 13.6206C74.2929 13.2498 74.2846 12.8984 74.2846 12.5691V1.68529H78.4787V22.2518H75.9981C75.6339 22.2518 75.3248 22.1937 75.071 22.083C74.8171 21.9696 74.5743 21.7648 74.3398 21.4631L64.6713 9.21233C64.6989 9.56931 64.7238 9.91799 64.7431 10.2639C64.7569 10.607 64.7679 10.9308 64.7679 11.2297V22.2546H60.5793V1.68529H63.082C63.2862 1.68529 63.46 1.69359 63.6035 1.71296H63.6007Z" fill="white"/>
<path d="M98.1273 1.68529V5.46818H92.3605V22.2518H87.6007V5.46818H81.8284V1.68529H98.1246H98.1273Z" fill="white"/>
<path d="M104.181 21.0232H113.626V22.2518H102.749V2.28026H104.181V21.0232Z" fill="white"/>
<path d="M120.491 22.2518H119.042V2.28026H120.491V22.2518Z" fill="white"/>
<path d="M129.329 2.3273C129.401 2.36051 129.481 2.43523 129.569 2.54869L142.458 19.8526C142.433 19.5731 142.419 19.2991 142.419 19.0362V2.28026H143.685V22.2518H142.993C142.778 22.2518 142.607 22.1577 142.471 21.9696L129.525 4.638C129.553 4.92026 129.569 5.18592 129.569 5.44328V22.2546H128.316V2.28026H129.02C129.15 2.28026 129.255 2.29686 129.332 2.3273H129.329Z" fill="white"/>
<path d="M162.915 2.28026V3.48127H152.43V11.5535H161.157V12.724H152.43V21.0508H162.915V22.2518H150.981V2.28026H162.915Z" fill="white"/>
<path d="M46.8631 0.92981C40.7817 0.92981 35.8564 5.8722 35.8564 11.9686C35.8564 18.0649 40.7845 23.0073 46.8631 23.0073C52.9418 23.0073 57.8698 18.0649 57.8698 11.9686C57.8698 5.8722 52.9418 0.92981 46.8631 0.92981ZM44.0459 16.9663C43.7093 17.2984 42.4676 17.8795 42.0455 17.5253C41.6923 17.2236 41.6067 15.7597 41.4329 15.2284C41.3777 15.0596 40.9142 14.1907 40.7348 13.7728C40.4865 13.6289 40.3182 13.3577 40.3182 13.0506V11.357H40.9004V10.9031H40.3182V10.513H41.546V10.0591H40.3237C40.3513 9.62465 40.7127 9.28151 41.1515 9.28151H43.552V13.8863H42.8788C42.9947 14.354 43.0526 14.8631 43.2899 15.2395C43.5796 15.6989 44.6861 16.3215 44.0404 16.9635L44.0459 16.9663ZM50.6682 16.9082C50.5909 17.0161 50.039 17.0576 49.9811 17.0078C49.9094 16.9525 49.6169 16.4267 49.4982 16.2828C48.2014 14.7663 46.1209 14.2875 44.2391 13.9333L44.2225 9.31472C47.5667 8.89409 48.7643 8.09987 50.0942 6.29836H50.6792L50.6682 16.9082ZM53.1846 12.7932C53.1129 12.9648 52.5638 13.521 52.3982 13.6483C52.3623 13.676 51.8546 13.9887 51.8105 14.008C51.7498 14.0357 51.2228 14.1769 51.1979 14.1381L51.1897 9.85711C52.7459 10.2362 53.902 11.0443 53.1818 12.7904L53.1846 12.7932Z" fill="white"/>
<path d="M46.9596 32.3552C45.5441 32.3552 44.6335 31.4199 44.6335 29.9726C44.6335 28.5253 45.6214 27.5014 47.0865 27.5014C47.7653 27.5014 48.1295 27.6757 48.1957 27.7117L48.0964 28.2818C47.7156 28.2043 47.3983 28.1517 47.1058 28.1517C46.0573 28.1517 45.4061 28.8435 45.4061 29.956C45.4061 31.0684 46.0325 31.7132 47.0755 31.7132C47.4176 31.7132 47.7681 31.6413 47.9998 31.5278L48.2316 32.0453C47.9474 32.2639 47.4866 32.3608 46.9541 32.3608L46.9596 32.3552Z" fill="white"/>
<path d="M46.9596 32.3109C45.5745 32.3109 44.6777 31.3922 44.6777 29.9726C44.6777 28.553 45.6462 27.5429 47.0893 27.5429C47.735 27.5429 48.0909 27.7006 48.182 27.7477L48.0578 28.2679C47.7626 28.1711 47.4398 28.1047 47.1086 28.1047C46.0353 28.1047 45.3675 28.8131 45.3675 29.9504C45.3675 31.0878 46.0077 31.752 47.0811 31.752C47.4287 31.752 47.7874 31.68 48.0247 31.5638L48.0634 31.5444L48.1958 32.0508C47.964 32.1975 47.5363 32.3109 46.9624 32.3109H46.9596Z" fill="white"/>
<path d="M48.1627 32.0619C47.9447 32.1726 47.5115 32.2777 46.9624 32.2777C45.6821 32.2777 44.7136 31.4669 44.7136 29.9726C44.7136 28.4782 45.6821 27.5761 47.0921 27.5761C47.6578 27.5761 48.0137 27.6979 48.1682 27.7781L48.0247 28.2596C47.8012 28.1517 47.4894 28.0714 47.1087 28.0714C46.0408 28.0714 45.3345 28.755 45.3345 29.9504C45.3345 31.0657 45.9746 31.7852 47.0811 31.7852C47.4425 31.7852 47.8012 31.7104 48.0385 31.5942L48.1627 32.0619Z" fill="white"/>
<path d="M52.5415 32.3608C51.2944 32.3608 50.4197 31.3784 50.4197 29.9726C50.4197 28.5668 51.3164 27.5014 52.6078 27.5014C53.8991 27.5014 54.7296 28.4589 54.7296 29.8868C54.7296 31.597 53.6342 32.3635 52.5415 32.3635V32.3608ZM52.5829 28.1323C51.6255 28.1323 51.1978 29.0483 51.1978 29.9587C51.1978 30.8111 51.631 31.7298 52.5747 31.7298C53.5183 31.7298 53.9543 30.8166 53.9543 29.9117C53.9543 29.0538 53.5211 28.1351 52.5829 28.1351V28.1323Z" fill="white"/>
<path d="M52.5416 32.3192C51.3165 32.3192 50.4639 31.3562 50.4639 29.9726C50.4639 28.5889 51.3468 27.5429 52.6078 27.5429C53.8688 27.5429 54.6855 28.4838 54.6855 29.884C54.6855 31.5665 53.6094 32.3192 52.5416 32.3192ZM52.583 28.0908C51.5952 28.0908 51.1537 29.0289 51.1537 29.9587C51.1537 30.8332 51.6007 31.7713 52.5719 31.7713C53.5432 31.7713 53.9957 30.836 53.9957 29.9117C53.9957 29.0372 53.5542 28.0908 52.5802 28.0908H52.583Z" fill="white"/>
<path d="M54.6524 29.884C54.6524 31.4558 53.7032 32.286 52.5416 32.286C51.3799 32.286 50.4969 31.3535 50.4969 29.9726C50.4969 28.5225 51.3937 27.5761 52.6078 27.5761C53.8219 27.5761 54.6524 28.5308 54.6524 29.884ZM51.1205 29.9587C51.1205 30.9356 51.6476 31.8045 52.5719 31.8045C53.4963 31.8045 54.0288 30.9467 54.0288 29.9117C54.0288 29.004 53.5597 28.0576 52.5802 28.0576C51.6007 28.0576 51.1178 28.957 51.1178 29.9587H51.1205Z" fill="white"/>
<path d="M61.3767 32.2888L61.1864 30.2133C61.145 29.3942 61.1091 28.7439 61.1146 28.2403C61.0898 28.7937 60.9049 29.3665 60.6731 29.9975L59.8702 32.2113L59.3156 32.239L58.5375 30.039C58.325 29.3914 58.1401 28.802 58.0104 28.2569L58.0629 30.2576L57.9387 32.2169L57.3041 32.2888L57.5469 27.6453L58.3719 27.5733L59.2273 29.8287C59.4122 30.396 59.5694 30.8969 59.6826 31.3756C59.6688 30.9135 59.8288 30.4098 60.033 29.8287L60.8387 27.6231L61.6637 27.5733L62.0335 32.2888H61.374H61.3767Z" fill="white"/>
<path d="M61.3767 32.2445L61.2305 30.2106C61.1918 29.4717 61.1532 28.7716 61.1587 28.2403C61.0483 28.7826 60.8635 29.3527 60.6317 29.9836L59.8288 32.1975H59.3155L58.5788 30.0252C58.3663 29.3804 58.1815 28.7909 58.0518 28.2486L58.0187 30.2604L57.8945 32.2169L57.3013 32.2473L57.5855 27.6508L58.3691 27.6204L59.1803 29.8481C59.3652 30.4126 59.5225 30.9135 59.6356 31.3894C59.7073 30.9273 59.8674 30.4264 60.0716 29.8481L60.8773 27.6425L61.6609 27.6204L61.9837 32.2501H61.3712L61.3767 32.2445Z" fill="white"/>
<path d="M61.2636 30.2078C61.2305 29.5713 61.1863 28.8075 61.1918 28.2403H61.1725C61.0152 28.7743 60.8304 29.3416 60.5986 29.9726L59.7956 32.1864H59.3486L58.6119 30.0141C58.3995 29.3721 58.2146 28.7826 58.0849 28.2403H58.0766C58.0628 28.8103 58.0297 29.5741 57.9856 30.2548L57.8614 32.2113H57.3013L57.6186 27.6508H58.3691L59.1472 29.8564C59.3321 30.4181 59.4894 30.919 59.6025 31.395H59.6273C59.7405 30.9356 59.9033 30.4347 60.1074 29.8564L60.9131 27.6508H61.6637L61.9479 32.2113H61.3739L61.2608 30.2078H61.2636Z" fill="white"/>
<path d="M68.8129 32.2888L68.6225 30.2133C68.5811 29.3804 68.5453 28.7384 68.5508 28.2403C68.5315 28.7937 68.3411 29.3665 68.1093 29.9975L67.3063 32.2113L66.7517 32.239L65.9736 30.039C65.7612 29.3914 65.5763 28.802 65.4466 28.2569L65.499 30.2576L65.3749 32.2169L64.7402 32.2888L64.983 27.6453L65.8081 27.5733L66.6634 29.8287C66.8483 30.396 67.0056 30.8969 67.1187 31.3756C67.1049 30.9135 67.265 30.4098 67.4691 29.8287L68.2748 27.6231L69.0999 27.5733L69.4696 32.2888H68.8101H68.8129Z" fill="white"/>
<path d="M68.813 32.2445L68.6667 30.2106C68.6281 29.4689 68.5895 28.7716 68.595 28.2403C68.4901 28.7826 68.2998 29.3527 68.068 29.9836L67.265 32.1975H66.7518L66.0151 30.0252C65.8026 29.3804 65.6178 28.7909 65.4881 28.2486L65.455 30.2604L65.3308 32.2169L64.7375 32.2473L65.0218 27.6508L65.8054 27.6204L66.6166 29.8481C66.8015 30.4126 66.9588 30.9135 67.0719 31.3894C67.1436 30.9273 67.3037 30.4264 67.5078 29.8481L68.3135 27.6425L69.0972 27.6204L69.42 32.2501H68.8075L68.813 32.2445Z" fill="white"/>
<path d="M68.6998 30.2078C68.6667 29.5713 68.6226 28.8075 68.6281 28.2403H68.6088C68.457 28.7743 68.2666 29.3416 68.0349 29.9726L67.2319 32.1864H66.7849L66.0482 30.0141C65.8357 29.3721 65.6509 28.7826 65.5212 28.2403H65.5129C65.4991 28.8103 65.466 29.5741 65.4218 30.2548L65.2977 32.2113H64.7375L65.0549 27.6508H65.8054L66.5835 29.8564C66.7684 30.4181 66.9256 30.919 67.0388 31.395H67.0636C67.1767 30.9356 67.3395 30.4347 67.5437 29.8564L68.3494 27.6508H69.0999L69.3841 32.2113H68.8102L68.6971 30.2078H68.6998Z" fill="white"/>
<path d="M73.9259 32.3608C72.8249 32.3608 72.2179 31.6413 72.2179 30.3351V27.6481L72.8856 27.5706L72.9629 30.3489C72.9629 31.2372 73.3133 31.727 73.9452 31.727C74.795 31.727 74.9744 30.9771 74.9744 30.3489V27.6481L75.6421 27.5706L75.7194 30.3074C75.7194 32.0923 74.5936 32.358 73.9259 32.358V32.3608Z" fill="white"/>
<path d="M73.9259 32.3192C72.8525 32.3192 72.2593 31.6136 72.2593 30.3379V27.6508L72.8856 27.6176L72.9187 30.3517C72.9187 31.2677 73.283 31.7713 73.9424 31.7713C74.646 31.7713 75.0158 31.2787 75.0158 30.3517V27.6508L75.6421 27.6176L75.6752 30.3102C75.6752 32.0591 74.5798 32.3192 73.9231 32.3192H73.9259Z" fill="white"/>
<path d="M72.8856 27.6508V30.3517C72.8856 31.3728 73.3354 31.8045 73.9452 31.8045C74.6184 31.8045 75.0516 31.359 75.0516 30.3517V27.6508H75.6449V30.3102C75.6449 31.7104 74.9081 32.286 73.9258 32.286C72.996 32.286 72.2924 31.752 72.2924 30.3379V27.6508H72.8856Z" fill="white"/>
<path d="M81.4944 32.2888L79.9851 29.9394C79.6678 29.4274 79.3643 28.9044 79.1353 28.4091C79.2926 28.9487 79.3063 29.5021 79.3063 30.2631V32.2113L78.68 32.2888L78.6 27.6508L79.3174 27.5733L80.8405 29.9145C81.1771 30.4541 81.442 30.9384 81.6628 31.406C81.4779 30.8304 81.4641 30.2715 81.4641 29.5575V27.6481L82.0904 27.5706L82.1705 32.286H81.4972L81.4944 32.2888Z" fill="white"/>
<path d="M81.4945 32.2445L80.0238 29.9145C79.7065 29.4053 79.403 28.885 79.1739 28.3897C79.2512 28.9542 79.265 29.5021 79.265 30.2631V32.2113L78.6773 32.2445L78.6442 27.6481L79.3174 27.6148L80.8019 29.9366C81.1385 30.4735 81.4034 30.955 81.6242 31.4226C81.5193 30.8221 81.5055 30.2659 81.5055 29.5547V27.6453L82.0932 27.6121L82.1263 32.2418H81.4945V32.2445Z" fill="white"/>
<path d="M78.6745 32.2113V27.6508H79.3147L80.7715 29.9587C81.1082 30.4928 81.3731 30.9743 81.5883 31.442L81.6021 31.4337C81.5497 30.8249 81.5359 30.2687 81.5359 29.5575V27.6481H82.0905V32.2086H81.4917L80.0486 29.8923C79.7313 29.3859 79.4278 28.8657 79.1988 28.3731L79.1795 28.3786C79.2126 28.9542 79.2264 29.5021 79.2264 30.2604V32.2086H78.6718L78.6745 32.2113Z" fill="white"/>
<path d="M85.1285 32.2888L85.054 27.6508L85.7162 27.5733L85.7934 32.2888H85.1285Z" fill="white"/>
<path d="M85.1285 32.2445L85.0953 27.6508L85.7162 27.6176L85.7493 32.2445H85.1285Z" fill="white"/>
<path d="M85.7161 27.6508V32.2113H85.1284V27.6508H85.7161Z" fill="white"/>
<path d="M90.738 32.3552C89.3225 32.3552 88.412 31.4199 88.412 29.9726C88.412 28.5253 89.3998 27.5014 90.865 27.5014C91.5438 27.5014 91.908 27.6757 91.9742 27.7117L91.8749 28.2818C91.4941 28.2043 91.1823 28.1517 90.8843 28.1517C89.8358 28.1517 89.1846 28.8435 89.1846 29.956C89.1846 31.0684 89.8109 31.7132 90.8539 31.7132C91.1961 31.7132 91.5465 31.6413 91.7783 31.5278L92.0101 32.0453C91.7259 32.2639 91.2651 32.3608 90.7325 32.3608L90.738 32.3552Z" fill="white"/>
<path d="M90.738 32.3109C89.3528 32.3109 88.4561 31.3922 88.4561 29.9726C88.4561 28.553 89.4246 27.5429 90.8676 27.5429C91.5133 27.5429 91.8692 27.7006 91.9603 27.7477L91.8361 28.2679C91.5409 28.1711 91.2181 28.1047 90.887 28.1047C89.8136 28.1047 89.1459 28.8131 89.1459 29.9504C89.1459 31.0878 89.786 31.752 90.8594 31.752C91.207 31.752 91.5657 31.68 91.803 31.5638L91.8417 31.5444L91.9741 32.0508C91.7423 32.1975 91.3146 32.3109 90.7407 32.3109H90.738Z" fill="white"/>
<path d="M91.9383 32.0619C91.7204 32.1726 91.2871 32.2777 90.738 32.2777C89.4577 32.2777 88.4893 31.4669 88.4893 29.9726C88.4893 28.4782 89.4578 27.5761 90.8677 27.5761C91.4334 27.5761 91.7893 27.6979 91.9438 27.7781L91.8004 28.2596C91.5769 28.1517 91.2651 28.0714 90.8843 28.0714C89.8165 28.0714 89.1101 28.755 89.1101 29.9504C89.1101 31.0657 89.7502 31.7852 90.8567 31.7852C91.2182 31.7852 91.5769 31.7104 91.8142 31.5942L91.9383 32.0619Z" fill="white"/>
<path d="M97.5424 32.2888L96.9822 30.8028L95.4453 30.8526L95.0507 32.2335L94.3665 32.2888L95.8316 27.6259L96.6152 27.5761L98.2763 32.2916H97.5396L97.5424 32.2888ZM96.0855 29.0206L95.644 30.3434L96.9353 30.241L96.4138 29.0317C96.3476 28.8241 96.2952 28.6332 96.2483 28.4506L96.0882 29.0206H96.0855Z" fill="white"/>
<path d="M97.5423 32.2445L97.0263 30.7889L95.4452 30.8111L95.0093 32.2224L94.3691 32.2473L95.8784 27.6398L96.6179 27.6176L98.2183 32.2473H97.5451L97.5423 32.2445ZM96.044 29.0068L95.6025 30.3296L96.9352 30.2853L96.4551 29.0179C96.3696 28.755 96.3089 28.517 96.251 28.2845C96.1903 28.5225 96.1185 28.7688 96.0413 29.0068H96.044Z" fill="white"/>
<path d="M95.4452 30.7779L94.9762 32.2141H94.3691L95.9116 27.6536H96.6179L98.1686 32.2141H97.5423L97.0594 30.7779H95.4452ZM96.9352 30.3185L96.4882 29.004C96.3889 28.7079 96.3227 28.434 96.2565 28.1711H96.2427C96.1764 28.4423 96.0992 28.7218 96.0109 28.9957L95.5694 30.3157H96.9352V30.3185Z" fill="white"/>
<path d="M101.196 32.2888L101.121 28.1517L99.816 28.2292L99.7388 27.6536L103.18 27.5733L103.257 28.1489L101.789 28.2292L101.866 32.2888H101.196Z" fill="white"/>
<path d="M101.196 32.2445L101.162 28.1517L99.8159 28.1849L99.7828 27.6508L103.179 27.6176L103.213 28.1517L101.789 28.1849L101.825 32.2445H101.196Z" fill="white"/>
<path d="M101.196 28.1517H99.8159V27.6508H103.179V28.1517H101.789V32.2113H101.196V28.1517Z" fill="white"/>
<path d="M105.704 32.2888L105.63 27.6508L106.295 27.5733L106.369 32.2888H105.704Z" fill="white"/>
<path d="M105.704 32.2445L105.671 27.6508L106.295 27.6176L106.328 32.2445H105.704Z" fill="white"/>
<path d="M106.295 27.6508V32.2113H105.707V27.6508H106.295Z" fill="white"/>
<path d="M111.11 32.3608C109.862 32.3608 108.988 31.3784 108.988 29.9726C108.988 28.5668 109.885 27.5014 111.176 27.5014C112.467 27.5014 113.298 28.4589 113.298 29.8868C113.298 31.597 112.202 32.3635 111.11 32.3635V32.3608ZM111.151 28.1323C110.194 28.1323 109.766 29.0483 109.766 29.9587C109.766 30.8111 110.199 31.7298 111.143 31.7298C112.086 31.7298 112.522 30.8166 112.522 29.9117C112.522 29.0538 112.089 28.1351 111.151 28.1351V28.1323Z" fill="white"/>
<path d="M111.11 32.3192C109.884 32.3192 109.032 31.3562 109.032 29.9726C109.032 28.5889 109.915 27.5429 111.176 27.5429C112.437 27.5429 113.254 28.4838 113.254 29.884C113.254 31.5665 112.177 32.3192 111.11 32.3192ZM111.151 28.0908C110.163 28.0908 109.722 29.0289 109.722 29.9587C109.722 30.8332 110.169 31.7713 111.14 31.7713C112.111 31.7713 112.564 30.836 112.564 29.9117C112.564 29.0372 112.122 28.0908 111.148 28.0908H111.151Z" fill="white"/>
<path d="M113.223 29.884C113.223 31.4558 112.274 32.286 111.112 32.286C109.951 32.286 109.068 31.3535 109.068 29.9726C109.068 28.5225 109.965 27.5761 111.179 27.5761C112.393 27.5761 113.223 28.5308 113.223 29.884ZM109.691 29.9587C109.691 30.9356 110.218 31.8045 111.143 31.8045C112.067 31.8045 112.6 30.9467 112.6 29.9117C112.6 29.004 112.131 28.0576 111.151 28.0576C110.171 28.0576 109.689 28.957 109.689 29.9587H109.691Z" fill="white"/>
<path d="M118.813 32.2888L117.304 29.9394C116.987 29.4274 116.683 28.9044 116.454 28.4091C116.612 28.9487 116.625 29.5021 116.625 30.2631V32.2113L115.999 32.2888L115.919 27.6508L116.636 27.5733L118.159 29.9145C118.496 30.4541 118.761 30.9384 118.982 31.406C118.797 30.8304 118.783 30.2715 118.783 29.5575V27.6481L119.409 27.5706L119.489 32.286H118.816L118.813 32.2888Z" fill="white"/>
<path d="M118.813 32.2445L117.343 29.9145C117.025 29.4053 116.722 28.885 116.493 28.3897C116.57 28.9542 116.584 29.5021 116.584 30.2631V32.2113L115.996 32.2445L115.963 27.6481L116.636 27.6148L118.121 29.9366C118.457 30.4735 118.722 30.955 118.943 31.4226C118.838 30.8221 118.824 30.2659 118.824 29.5547V27.6453L119.412 27.6121L119.445 32.2418H118.813V32.2445Z" fill="white"/>
<path d="M115.993 32.2113V27.6508H116.634L118.091 29.9587C118.427 30.4928 118.692 30.9743 118.907 31.442L118.921 31.4337C118.869 30.8249 118.855 30.2687 118.855 29.5575V27.6481H119.409V32.2086H118.811L117.368 29.8923C117.05 29.3859 116.747 28.8657 116.518 28.3731L116.498 28.3786C116.532 28.9542 116.545 29.5021 116.545 30.2604V32.2086H115.991L115.993 32.2113Z" fill="white"/>
<path d="M139.055 28.9487H123.399V29.4385H139.055V28.9487Z" fill="white"/>
<path d="M139.055 30.4209H123.399V30.9107H139.055V30.4209Z" fill="white"/>
<path d="M39.7442 28.9487H24.0881V29.4385H39.7442V28.9487Z" fill="white"/>
<path d="M39.7442 30.4209H24.0881V30.9107H39.7442V30.4209Z" fill="white"/>
<path d="M0.938013 39.409H3.4379V38.803H0.938013V37.2672H3.74418V36.6473H0.228882V41.6422H3.84351V41.0224H0.938013V39.409Z" fill="white"/>
<path d="M13.4182 38.0033C13.1837 37.8843 12.9105 37.8262 12.6042 37.8262C12.2621 37.8262 11.9641 37.8953 11.7075 38.0337C11.5088 38.1416 11.3626 38.2911 11.2439 38.4626V37.8621H10.59V41.645H11.2743V39.6968C11.2743 39.4201 11.3239 39.1904 11.4205 39.005C11.5171 38.8196 11.6578 38.6785 11.8371 38.5844C12.0165 38.4903 12.229 38.4405 12.4718 38.4405C12.7946 38.4405 13.0457 38.5346 13.2223 38.72C13.3989 38.9054 13.4899 39.1821 13.4899 39.5474V41.645H14.1742V39.4672C14.1742 39.0963 14.108 38.7892 13.9756 38.5457C13.8431 38.3021 13.6583 38.1223 13.4237 38.0033H13.4182Z" fill="white"/>
<path d="M24.091 38.4405C23.9503 38.2606 23.7792 38.1195 23.5777 38.0199C23.3129 37.8898 23.0176 37.8234 22.6948 37.8234C22.3306 37.8234 22.0022 37.9009 21.7152 38.0531C21.4283 38.2053 21.1993 38.4184 21.031 38.6923C20.8626 38.9663 20.7771 39.2873 20.7771 39.6526C20.7771 40.0178 20.8626 40.3333 21.031 40.61C21.1993 40.8868 21.4283 41.1026 21.7152 41.2548C22.0022 41.4098 22.3278 41.4873 22.6948 41.4873C23.0176 41.4873 23.3101 41.4209 23.5777 41.2825C23.7626 41.1884 23.9199 41.0583 24.0551 40.8978V41.2022C24.0551 41.6312 23.9502 41.9494 23.7405 42.1597C23.5308 42.3701 23.2052 42.4752 22.7582 42.4752C22.4796 42.4752 22.2092 42.4309 21.9553 42.3424C21.6987 42.2538 21.4835 42.1348 21.3069 41.9826L20.9785 42.5112C21.1827 42.6911 21.4476 42.8322 21.7732 42.929C22.0988 43.0259 22.4327 43.0757 22.7803 43.0757C23.4205 43.0757 23.9061 42.918 24.24 42.6053C24.5711 42.2898 24.7394 41.8 24.7394 41.1358V37.8677H24.091V38.4488V38.4405ZM23.9033 40.2946C23.793 40.48 23.6385 40.6239 23.4453 40.729C23.2494 40.8342 23.0287 40.8868 22.7776 40.8868C22.5265 40.8868 22.303 40.8342 22.1043 40.729C21.9084 40.6239 21.7539 40.48 21.6407 40.2946C21.5304 40.1092 21.4724 39.8961 21.4724 39.6526C21.4724 39.409 21.5276 39.196 21.6407 39.0106C21.7511 38.8251 21.9056 38.6812 22.1043 38.5789C22.3002 38.4765 22.5265 38.4267 22.7776 38.4267C23.0287 38.4267 23.2522 38.4765 23.4453 38.5789C23.6412 38.6812 23.793 38.8251 23.9033 39.0106C24.0137 39.196 24.0717 39.409 24.0717 39.6526C24.0717 39.8961 24.0165 40.1092 23.9033 40.2946Z" fill="white"/>
<path d="M33.1082 37.8234C32.8102 37.8234 32.5233 37.8649 32.2501 37.9479C31.977 38.0309 31.7424 38.1499 31.5493 38.3077L31.8335 38.8224C31.9797 38.6978 32.1618 38.601 32.3743 38.5263C32.5867 38.4516 32.8047 38.4156 33.0282 38.4156C33.3649 38.4156 33.6187 38.4958 33.787 38.6536C33.9553 38.8141 34.0409 39.0382 34.0409 39.3288V39.4644H32.9592C32.584 39.4644 32.286 39.5142 32.0652 39.6138C31.8445 39.7134 31.6845 39.8463 31.5879 40.0123C31.4913 40.1784 31.4417 40.3638 31.4417 40.5685C31.4417 40.7733 31.4996 40.9753 31.6127 41.1441C31.7259 41.3129 31.8887 41.4458 32.1011 41.5399C32.3136 41.634 32.5591 41.6838 32.8378 41.6838C33.1827 41.6838 33.4725 41.6173 33.6987 41.4873C33.8588 41.396 33.9829 41.2797 34.0767 41.1386V41.6395H34.7252V39.3565C34.7252 38.839 34.5844 38.4516 34.3058 38.1997C34.0271 37.9479 33.627 37.8206 33.111 37.8206L33.1082 37.8234ZM33.6242 40.9864C33.4311 41.0999 33.2076 41.158 32.951 41.158C32.6944 41.158 32.4847 41.1026 32.3384 40.9892C32.1922 40.8785 32.1177 40.729 32.1177 40.5436C32.1177 40.3831 32.1756 40.2448 32.297 40.1285C32.4157 40.0151 32.6447 39.957 32.9868 39.957H34.0409V40.4855C33.9553 40.7041 33.8174 40.8702 33.6242 40.9836V40.9864Z" fill="white"/>
<path d="M44.6475 38.4405C44.5068 38.2606 44.3357 38.1195 44.1343 38.0199C43.8694 37.8898 43.5741 37.8234 43.2513 37.8234C42.8871 37.8234 42.5587 37.9009 42.2718 38.0531C41.9848 38.2053 41.7558 38.4184 41.5875 38.6923C41.4192 38.9663 41.3336 39.2873 41.3336 39.6526C41.3336 40.0178 41.4192 40.3333 41.5875 40.61C41.7558 40.8868 41.982 41.1026 42.2718 41.2548C42.5587 41.4098 42.8843 41.4873 43.2513 41.4873C43.5741 41.4873 43.8666 41.4209 44.1343 41.2825C44.3191 41.1884 44.4764 41.0583 44.6116 40.8978V41.2022C44.6116 41.6312 44.5068 41.9494 44.2971 42.1597C44.0874 42.3701 43.7618 42.4752 43.3148 42.4752C43.0361 42.4752 42.7657 42.4309 42.5118 42.3424C42.2552 42.2538 42.04 42.1348 41.8634 41.9826L41.535 42.5112C41.7392 42.6911 42.0041 42.8322 42.3297 42.929C42.6553 43.0259 42.9892 43.0757 43.3368 43.0757C43.977 43.0757 44.4626 42.918 44.7965 42.6053C45.1276 42.2898 45.2932 41.8 45.2932 41.1358V37.8677H44.6447V38.4488L44.6475 38.4405ZM44.4599 40.2946C44.3495 40.48 44.195 40.6239 44.0018 40.729C43.8059 40.8342 43.5852 40.8868 43.3341 40.8868C43.083 40.8868 42.8595 40.8342 42.6608 40.729C42.4649 40.6239 42.3104 40.48 42.1973 40.2946C42.0869 40.1092 42.029 39.8961 42.029 39.6526C42.029 39.409 42.0841 39.196 42.1973 39.0106C42.3076 38.8251 42.4622 38.6812 42.6608 38.5789C42.8567 38.4765 43.083 38.4267 43.3341 38.4267C43.5852 38.4267 43.8087 38.4765 44.0018 38.5789C44.1977 38.6812 44.3495 38.8251 44.4599 39.0106C44.5702 39.196 44.6282 39.409 44.6282 39.6526C44.6282 39.8961 44.573 40.1092 44.4599 40.2946Z" fill="white"/>
<path d="M54.8042 38.0669C54.5255 37.9064 54.2027 37.8234 53.8357 37.8234C53.4687 37.8234 53.1514 37.9064 52.8645 38.0697C52.5775 38.2329 52.3512 38.4599 52.1884 38.7504C52.0256 39.041 51.9429 39.3731 51.9429 39.7494C51.9429 40.1258 52.0284 40.4578 52.1967 40.7484C52.365 41.039 52.6023 41.2659 52.9086 41.4347C53.2149 41.6007 53.5681 41.6838 53.9737 41.6838C54.2882 41.6838 54.5697 41.6312 54.8235 41.526C55.0774 41.4209 55.2899 41.2687 55.4609 41.0694L55.0829 40.6267C54.9449 40.7789 54.7849 40.8923 54.6028 40.9698C54.4207 41.0473 54.2165 41.0833 53.993 41.0833C53.7226 41.0833 53.4825 41.0279 53.2756 40.92C53.0659 40.8093 52.9031 40.6571 52.7872 40.4606C52.7017 40.3167 52.6603 40.1534 52.6354 39.9791H55.6872C55.6927 39.9459 55.6955 39.9099 55.6982 39.8712C55.701 39.8324 55.701 39.7992 55.701 39.7716C55.701 39.3814 55.621 39.041 55.4637 38.7477C55.3036 38.4543 55.0857 38.2274 54.8042 38.0669ZM53.2039 38.5623C53.3887 38.4543 53.6012 38.4017 53.8385 38.4017C54.0758 38.4017 54.2938 38.4543 54.4759 38.5623C54.658 38.6702 54.8015 38.8168 54.9063 39.0078C54.9836 39.1517 55.0222 39.3122 55.0388 39.4865H52.6354C52.6548 39.315 52.6934 39.1545 52.7706 39.0106C52.8755 38.8168 53.019 38.6674 53.2039 38.5623Z" fill="white"/>
<path d="M70.7611 39.409H73.2582V38.803H70.7611V37.2672H73.5645V36.6473H70.0492V41.6422H73.6638V41.0224H70.7611V39.409Z" fill="white"/>
<path d="M81.6933 40.8923L80.3965 37.8594H79.6846L81.3374 41.6423H82.0327L83.6855 37.8594H83.015L81.6933 40.8923Z" fill="white"/>
<path d="M92.424 38.0669C92.1453 37.9064 91.8225 37.8234 91.4555 37.8234C91.0885 37.8234 90.7712 37.9064 90.4842 38.0697C90.1973 38.2329 89.971 38.4599 89.8082 38.7504C89.6454 39.041 89.5626 39.3731 89.5626 39.7494C89.5626 40.1258 89.6482 40.4578 89.8165 40.7484C89.9848 41.039 90.2221 41.2659 90.5284 41.4347C90.8346 41.6007 91.1878 41.6838 91.5934 41.6838C91.908 41.6838 92.1894 41.6312 92.4433 41.526C92.6971 41.4209 92.9096 41.2687 93.0807 41.0694L92.7027 40.6267C92.5647 40.7789 92.4047 40.8923 92.2226 40.9698C92.0404 41.0473 91.8363 41.0833 91.6128 41.0833C91.3424 41.0833 91.1023 41.0279 90.8953 40.92C90.6856 40.8093 90.5228 40.6571 90.407 40.4606C90.3214 40.3167 90.28 40.1534 90.2552 39.9791H93.3069C93.3125 39.9459 93.3152 39.9099 93.318 39.8712C93.318 39.8324 93.3207 39.7992 93.3207 39.7716C93.3207 39.3814 93.2407 39.041 93.0834 38.7477C92.9234 38.4543 92.7054 38.2274 92.424 38.0669ZM90.8236 38.5623C91.0085 38.4543 91.221 38.4017 91.4582 38.4017C91.6955 38.4017 91.9135 38.4543 92.0956 38.5623C92.2777 38.6702 92.4212 38.8168 92.5261 39.0078C92.6033 39.1517 92.642 39.3122 92.6585 39.4865H90.2552C90.2745 39.315 90.3131 39.1545 90.3904 39.0106C90.4953 38.8168 90.6387 38.6674 90.8236 38.5623Z" fill="white"/>
<path d="M100.616 38.5014V37.8594H99.9623V41.6422H100.647V39.7577C100.647 39.3426 100.754 39.0272 100.967 38.8085C101.179 38.5899 101.469 38.4792 101.836 38.4792H101.91C101.935 38.4792 101.963 38.4792 101.993 38.4875V37.8234C101.632 37.8234 101.328 37.8926 101.083 38.0309C100.878 38.1444 100.727 38.3021 100.619 38.5014H100.616Z" fill="white"/>
<path d="M110.047 40.884L108.731 37.8594H108.019L109.683 41.634L109.562 41.8996C109.468 42.1182 109.366 42.2704 109.256 42.3562C109.145 42.442 109.01 42.4835 108.842 42.4835C108.715 42.4835 108.593 42.4586 108.477 42.4116C108.364 42.3645 108.259 42.2953 108.163 42.204L107.87 42.7187C107.995 42.8322 108.141 42.9207 108.312 42.9789C108.483 43.037 108.657 43.0674 108.839 43.0674C109.032 43.0674 109.211 43.0342 109.371 42.9706C109.534 42.9069 109.68 42.799 109.816 42.6468C109.951 42.4946 110.072 42.2843 110.183 42.0186L112.012 37.8566H111.344L110.042 40.8813L110.047 40.884Z" fill="white"/>
<path d="M122.268 40.8812L121.151 37.8594H120.574L119.434 40.8729L118.339 37.8594H117.691L119.092 41.6423H119.749L120.85 38.7753L121.94 41.6423H122.594L124.004 37.8594H123.391L122.268 40.8812Z" fill="white"/>
<path d="M133.217 38.0033C132.982 37.8843 132.709 37.8262 132.403 37.8262C132.061 37.8262 131.763 37.8953 131.506 38.0337C131.324 38.1333 131.186 38.2689 131.073 38.4211V36.3484H130.389V41.645H131.073V39.6968C131.073 39.4201 131.12 39.1904 131.219 39.005C131.316 38.8196 131.457 38.6785 131.636 38.5844C131.815 38.4903 132.028 38.4405 132.27 38.4405C132.593 38.4405 132.844 38.5346 133.021 38.72C133.198 38.9054 133.289 39.1821 133.289 39.5474V41.645H133.973V39.4672C133.973 39.0963 133.907 38.7892 133.774 38.5456C133.642 38.3021 133.457 38.1223 133.222 38.0033H133.217Z" fill="white"/>
<path d="M143.443 38.0669C143.161 37.9064 142.838 37.8234 142.474 37.8234C142.11 37.8234 141.79 37.9064 141.503 38.0697C141.216 38.2329 140.99 38.4599 140.827 38.7504C140.664 39.041 140.581 39.3731 140.581 39.7494C140.581 40.1258 140.667 40.4578 140.835 40.7484C141.003 41.039 141.241 41.2659 141.547 41.4347C141.853 41.6007 142.206 41.6838 142.612 41.6838C142.927 41.6838 143.208 41.6312 143.462 41.526C143.716 41.4209 143.928 41.2687 144.099 41.0694L143.721 40.6267C143.583 40.7789 143.423 40.8923 143.241 40.9698C143.059 41.0473 142.855 41.0833 142.631 41.0833C142.361 41.0833 142.121 41.0279 141.911 40.92C141.702 40.8093 141.539 40.6571 141.423 40.4606C141.337 40.3167 141.296 40.1534 141.271 39.9791H144.323C144.328 39.9459 144.331 39.9099 144.334 39.8712C144.334 39.8324 144.337 39.7992 144.337 39.7716C144.337 39.3814 144.257 39.041 144.099 38.7477C143.939 38.4543 143.721 38.2274 143.44 38.0669H143.443ZM141.842 38.5623C142.027 38.4543 142.24 38.4017 142.477 38.4017C142.714 38.4017 142.932 38.4543 143.114 38.5623C143.296 38.6702 143.44 38.8168 143.545 39.0078C143.622 39.1517 143.661 39.3122 143.677 39.4865H141.274C141.293 39.315 141.335 39.1545 141.409 39.0106C141.514 38.8168 141.657 38.6674 141.842 38.5623Z" fill="white"/>
<path d="M151.635 38.5014V37.8594H150.981V41.6422H151.665V39.7577C151.665 39.3426 151.773 39.0272 151.985 38.8085C152.198 38.5899 152.488 38.4792 152.854 38.4792H152.929C152.954 38.4792 152.981 38.4792 153.012 38.4875V37.8234C152.65 37.8234 152.347 37.8926 152.101 38.0309C151.897 38.1444 151.745 38.3049 151.638 38.5014H151.635Z" fill="white"/>
<path d="M162.675 38.7477C162.515 38.4543 162.297 38.2274 162.015 38.0669C161.737 37.9064 161.414 37.8234 161.047 37.8234C160.68 37.8234 160.362 37.9064 160.076 38.0697C159.789 38.2329 159.562 38.4599 159.4 38.7504C159.237 39.041 159.154 39.3731 159.154 39.7494C159.154 40.1258 159.239 40.4578 159.408 40.7484C159.576 41.039 159.813 41.2659 160.12 41.4347C160.426 41.6007 160.779 41.6838 161.185 41.6838C161.499 41.6838 161.781 41.6312 162.035 41.526C162.288 41.4209 162.501 41.2687 162.672 41.0694L162.294 40.6267C162.156 40.7789 161.996 40.8923 161.814 40.9698C161.632 41.0473 161.428 41.0833 161.204 41.0833C160.934 41.0833 160.694 41.0279 160.487 40.92C160.277 40.8093 160.114 40.6571 159.998 40.4606C159.913 40.3167 159.871 40.1534 159.847 39.9791H162.898C162.904 39.9459 162.907 39.9099 162.909 39.8712C162.909 39.8324 162.912 39.7992 162.912 39.7716C162.912 39.3814 162.832 39.041 162.672 38.7477H162.675ZM160.415 38.5623C160.6 38.4543 160.812 38.4017 161.05 38.4017C161.287 38.4017 161.505 38.4543 161.687 38.5623C161.869 38.6702 162.013 38.8168 162.117 39.0078C162.195 39.1517 162.233 39.3122 162.25 39.4865H159.847C159.866 39.315 159.904 39.1545 159.982 39.0106C160.087 38.8168 160.23 38.6674 160.415 38.5623Z" fill="white"/>
</svg>
