<svg width="31" height="32" viewBox="0 0 31 32" fill="none" xmlns="http://www.w3.org/2000/svg">
<g clip-path="url(#clip0_131_310)">
<path fill-rule="evenodd" clip-rule="evenodd" d="M14.5138 18.0764H16.4278V16.5626C16.4278 16.3938 16.5439 16.2497 16.7043 16.2191C17.0436 16.1535 17.3806 16.0605 17.7057 15.9418C17.8592 15.8858 18.0294 15.9505 18.111 16.0969L18.8422 17.4068L20.5001 16.417L19.7676 15.1049C19.6866 14.9593 19.7169 14.7745 19.8407 14.6653C20.1026 14.4324 20.3495 14.1777 20.574 13.9069C20.6795 13.7789 20.8583 13.7476 20.999 13.8313L22.2678 14.5889L23.2248 12.8742L21.9582 12.1181C21.8174 12.0337 21.7541 11.8583 21.8082 11.6997C21.9231 11.3627 22.013 11.014 22.0763 10.6632C22.1059 10.4973 22.2459 10.3773 22.4084 10.3773L23.8723 10.3772V8.39774H22.4085C22.2461 8.39774 22.1059 8.27763 22.0763 8.11169C22.013 7.7609 21.9229 7.41233 21.8082 7.07534C21.7541 6.9167 21.8174 6.74131 21.9581 6.65694L23.2248 5.90073L22.2678 4.18614L20.999 4.943C20.8583 5.02738 20.6795 4.99615 20.574 4.86808C20.3496 4.59731 20.1025 4.34263 19.8407 4.10973C19.7169 4.00055 19.6866 3.81571 19.7675 3.67014L20.5001 2.35793L18.8422 1.36816L18.111 2.67816C18.0295 2.82447 17.8591 2.88928 17.7057 2.83325C17.3799 2.71455 17.0428 2.62146 16.7043 2.55591C16.5439 2.52535 16.4278 2.38126 16.4278 2.21243L16.4278 0.698624H14.5138V2.21243C14.5138 2.38126 14.3977 2.52535 14.2371 2.55591C13.898 2.62139 13.5609 2.71455 13.2358 2.83325C13.0825 2.88921 12.9121 2.82447 12.8305 2.67823L12.0994 1.36816L10.4415 2.35793L11.1741 3.67014C11.255 3.81571 11.2247 4.00055 11.1008 4.10973C10.8384 4.34256 10.5921 4.59731 10.3676 4.86808C10.2621 4.99615 10.0833 5.02745 9.94252 4.943L8.67387 4.18614L7.71677 5.90073L8.98343 6.65686C9.12418 6.74131 9.18742 6.9167 9.13325 7.07534C9.01862 7.41233 8.92782 7.7609 8.86516 8.11169C8.83568 8.27763 8.69556 8.39774 8.53304 8.39774H7.06938V10.3772H8.53311C8.69556 10.3772 8.83561 10.4974 8.86516 10.6632C8.9279 11.014 9.01862 11.3627 9.13325 11.6997C9.18749 11.8582 9.12411 12.0337 8.98343 12.1181L7.71677 12.8742L8.67387 14.5889L9.94259 13.8313C10.0833 13.7476 10.262 13.7789 10.3676 13.9069C10.5921 14.1777 10.8384 14.4324 11.1008 14.6653C11.2247 14.7745 11.2549 14.9593 11.174 15.1049L10.4415 16.417L12.0994 17.4068L12.8306 16.0968C12.9121 15.9505 13.0825 15.8858 13.2358 15.9418C13.561 16.0604 13.898 16.1535 14.2371 16.2191C14.3977 16.2497 14.5137 16.3938 14.5137 16.5626L14.5138 18.0764ZM16.7656 18.775H14.176C13.9895 18.775 13.8381 18.6185 13.8381 18.4257L13.8382 16.8472C13.6496 16.8034 13.4624 16.7511 13.278 16.6921L12.5153 18.0589C12.4702 18.1389 12.3963 18.1979 12.3098 18.2219C12.224 18.2452 12.1317 18.2328 12.0536 18.187L9.81104 16.8479C9.64923 16.751 9.5942 16.5371 9.68706 16.3704L10.4513 15.0022C10.3093 14.8661 10.1726 14.725 10.0417 14.5787L8.71883 15.369C8.64146 15.4148 8.54917 15.428 8.46266 15.404C8.37622 15.3799 8.30221 15.321 8.25717 15.241L6.96253 12.9215C6.91813 12.8408 6.90536 12.7455 6.92863 12.6559C6.9519 12.5664 7.00878 12.4907 7.08623 12.4441L8.40791 11.6552C8.3501 11.4646 8.30014 11.271 8.25788 11.076L6.73163 11.0759C6.54512 11.0759 6.3938 10.9195 6.3938 10.7266L6.39394 8.04843C6.39394 7.85554 6.54505 7.69911 6.73155 7.69911L8.25795 7.69904C8.30021 7.50401 8.3501 7.31046 8.40777 7.11978L7.0863 6.33088C6.92449 6.2341 6.86953 6.02084 6.96239 5.85349L8.25717 3.53402C8.30228 3.454 8.37608 3.39502 8.46266 3.37102C8.54931 3.34703 8.64139 3.35936 8.71876 3.40594L10.0419 4.19632C10.1726 4.05001 10.3092 3.90813 10.4513 3.77275L9.6872 2.40451C9.59427 2.2379 9.64909 2.0239 9.8109 1.92712L12.0536 0.587969C12.1319 0.542128 12.2239 0.529062 12.3098 0.553127C12.3965 0.577118 12.4702 0.636099 12.5152 0.716119L13.2782 2.08288C13.4625 2.02316 13.6496 1.97156 13.8381 1.92786L13.8382 0.349312C13.8382 0.156423 13.9895 0 14.1759 0H16.7656C16.9521 0 17.1033 0.156497 17.1033 0.349312L17.1035 1.92779C17.292 1.97149 17.4791 2.02323 17.6634 2.08288L18.4263 0.716119C18.4714 0.636026 18.5445 0.577118 18.631 0.553127C18.7176 0.529062 18.8098 0.541463 18.8879 0.588043L21.1306 1.92712C21.208 1.9737 21.265 2.0501 21.2882 2.13965C21.3114 2.22912 21.2987 2.32449 21.2544 2.40458L20.4903 3.77275C20.6317 3.90813 20.7689 4.05001 20.8997 4.19632L22.2228 3.40594C22.384 3.30916 22.5907 3.36667 22.6836 3.53402L23.9792 5.85341C24.0235 5.93425 24.0361 6.02955 24.0129 6.11909C23.9897 6.20789 23.9327 6.2843 23.8552 6.33088L22.5338 7.11978C22.5915 7.31046 22.6414 7.50401 22.6836 7.69911L24.21 7.69904C24.3965 7.69904 24.5477 7.85554 24.5477 8.04843L24.5478 10.7266C24.5478 10.9195 24.3964 11.076 24.2099 11.076L22.6837 11.0759C22.6414 11.271 22.5914 11.4646 22.5337 11.6552L23.8553 12.4441C23.9328 12.4907 23.9897 12.5664 24.0129 12.6559C24.0361 12.7454 24.0235 12.8408 23.9791 12.9215L22.6837 15.2409C22.5907 15.4083 22.3845 15.4651 22.2227 15.3691L20.8997 14.5787C20.769 14.725 20.6317 14.8661 20.4903 15.0023L21.2544 16.3704C21.2987 16.4505 21.3114 16.5458 21.2882 16.6354C21.2651 16.7248 21.2079 16.8013 21.1306 16.8479L18.888 18.187C18.726 18.2831 18.5192 18.2263 18.4262 18.0589L17.6634 16.6921C17.4791 16.751 17.2919 16.8035 17.1033 16.8472L17.1035 18.4257C17.1035 18.6185 16.952 18.775 16.7656 18.775Z" fill="url(#paint0_linear_131_310)"/>
<path fill-rule="evenodd" clip-rule="evenodd" d="M25.9593 27.6545H4.9822C4.02525 27.6545 3.24609 26.8489 3.24609 25.8584L3.24624 10.8335C3.24624 9.84378 4.0251 9.03819 4.98212 9.03819L6.73157 9.03812C6.91808 9.03812 7.06926 9.19469 7.06926 9.3875C7.06933 9.58032 6.91801 9.73681 6.7315 9.73681H4.9822C4.39748 9.73681 3.92168 10.2288 3.92168 10.8335V25.8583C3.92168 26.4639 4.39733 26.9559 4.98212 26.9559H25.9593C26.544 26.9559 27.0197 26.4639 27.0197 25.8584L27.0198 10.8335C27.0198 10.2288 26.544 9.73681 25.9593 9.73681H24.2099C24.0228 9.73681 23.8721 9.58039 23.8721 9.3875C23.8723 9.19469 24.0227 9.03819 24.2099 9.03819L25.9593 9.03812C26.9163 9.03812 27.6953 9.84378 27.6953 10.8335V25.8583C27.6953 26.8489 26.9163 27.6546 25.9593 27.6545Z" fill="url(#paint1_linear_131_310)"/>
<path fill-rule="evenodd" clip-rule="evenodd" d="M11.2297 29.9885C11.179 29.9885 11.1283 29.9768 11.0805 29.9521C10.9131 29.8669 10.844 29.6573 10.9264 29.4842L12.0395 27.1502C12.1227 26.9777 12.3246 26.9064 12.4921 26.9915C12.6596 27.0774 12.7285 27.2863 12.6455 27.4595L11.5323 29.7934C11.4739 29.9171 11.3542 29.9885 11.2297 29.9885Z" fill="url(#paint2_linear_131_310)"/>
<path fill-rule="evenodd" clip-rule="evenodd" d="M19.712 29.9885C19.5875 29.9885 19.4678 29.9172 19.4087 29.7935L18.2963 27.4595C18.2131 27.2863 18.2821 27.0774 18.4496 26.9915C18.6164 26.9064 18.819 26.9777 18.9013 27.1502L20.0146 29.4841C20.0977 29.6573 20.0287 29.8669 19.8611 29.9521C19.8134 29.9768 19.7626 29.9885 19.712 29.9885Z" fill="url(#paint3_linear_131_310)"/>
<path fill-rule="evenodd" clip-rule="evenodd" d="M9.34997 31.3014H21.5914V29.9885H9.34997V31.3014ZM21.9293 32H9.01214C8.82578 32 8.67432 31.8443 8.67432 31.6508L8.67439 29.6391C8.67439 29.4463 8.82564 29.2898 9.01207 29.2898H21.9293C22.1156 29.2898 22.2669 29.4463 22.2669 29.6392L22.267 31.6507C22.267 31.8442 22.1156 32.0001 21.9293 32Z" fill="url(#paint4_linear_131_310)"/>
<path fill-rule="evenodd" clip-rule="evenodd" d="M15.4707 25.3854C15.337 25.3854 15.2286 25.4974 15.2286 25.6357C15.2287 25.7732 15.3369 25.8861 15.4706 25.8861C15.6044 25.8861 15.7127 25.7733 15.7127 25.6357C15.7127 25.4974 15.6043 25.3854 15.4707 25.3854ZM15.4707 26.5847C14.9648 26.5847 14.553 26.159 14.553 25.6357C14.553 25.1124 14.9647 24.6867 15.4706 24.6867C15.9766 24.6867 16.3882 25.1125 16.3882 25.6357C16.3883 26.159 15.9766 26.5847 15.4707 26.5847Z" fill="url(#paint5_linear_131_310)"/>
<path fill-rule="evenodd" clip-rule="evenodd" d="M27.3576 24.3155H3.58399C3.39748 24.3155 3.24609 24.1591 3.24609 23.9662C3.24624 23.7726 3.39741 23.6169 3.58392 23.6169H27.3576C27.5441 23.6169 27.6953 23.7726 27.6953 23.9662C27.6953 24.159 27.544 24.3155 27.3576 24.3155Z" fill="url(#paint6_linear_131_310)"/>
<path fill-rule="evenodd" clip-rule="evenodd" d="M15.4708 4.52379C12.8776 4.52379 10.7678 6.70566 10.7678 9.38751C10.7679 12.0694 12.8775 14.2512 15.4706 14.2512C18.0637 14.2512 20.1727 12.0694 20.1727 9.38751C20.1727 6.70566 18.0637 4.52379 15.4708 4.52379ZM15.4708 14.9491C12.5054 14.9491 10.0923 12.4543 10.0923 9.38751C10.0924 6.32069 12.5053 3.82516 15.4706 3.82516C18.436 3.82516 20.8482 6.32069 20.8482 9.38751C20.8483 12.4543 18.436 14.9491 15.4708 14.9491Z" fill="url(#paint7_linear_131_310)"/>
<path fill-rule="evenodd" clip-rule="evenodd" d="M18.8212 9.73681H12.1205C11.9341 9.73681 11.7827 9.58039 11.7827 9.3875C11.7828 9.19469 11.934 9.03819 12.1205 9.03819L18.8212 9.03812C19.0076 9.03812 19.1588 9.19469 19.1588 9.3875C19.159 9.58032 19.0076 9.73681 18.8212 9.73681Z" fill="url(#paint8_linear_131_310)"/>
<path fill-rule="evenodd" clip-rule="evenodd" d="M18.8212 7.98944H12.1205C11.9341 7.98944 11.7827 7.83302 11.7827 7.64013C11.7828 7.44724 11.934 7.29081 12.1205 7.29081L18.8212 7.29074C19.0076 7.29074 19.1588 7.44724 19.1588 7.64013C19.159 7.83294 19.0076 7.98944 18.8212 7.98944Z" fill="url(#paint9_linear_131_310)"/>
<path fill-rule="evenodd" clip-rule="evenodd" d="M18.8212 11.4842H12.1205C11.9341 11.4842 11.7827 11.3278 11.7827 11.1349C11.7828 10.942 11.934 10.7856 12.1205 10.7856H18.8212C19.0076 10.7856 19.1588 10.942 19.1588 11.1349C19.159 11.3277 19.0076 11.4842 18.8212 11.4842Z" fill="url(#paint10_linear_131_310)"/>
<path fill-rule="evenodd" clip-rule="evenodd" d="M13.5524 8.56434C13.3653 8.56434 13.2146 8.40866 13.2146 8.21503L13.2147 7.06515C13.2147 6.87159 13.3652 6.71584 13.5524 6.71584C13.7389 6.71584 13.8894 6.87159 13.8894 7.06522L13.8895 8.21503C13.8895 8.40866 13.7389 8.56441 13.5524 8.56434Z" fill="url(#paint11_linear_131_310)"/>
<path fill-rule="evenodd" clip-rule="evenodd" d="M15.4707 10.3117C15.2842 10.3117 15.1328 10.156 15.1328 9.96248V8.81252C15.1328 8.61897 15.2841 8.46321 15.4706 8.46321C15.6571 8.46321 15.8083 8.61897 15.8083 8.8126L15.8085 9.9624C15.8085 10.156 15.6571 10.3118 15.4707 10.3117Z" fill="url(#paint12_linear_131_310)"/>
<path fill-rule="evenodd" clip-rule="evenodd" d="M17.3891 12.0591C17.2026 12.0591 17.0513 11.9034 17.0513 11.7099L17.0514 10.5599C17.0514 10.3663 17.2026 10.2106 17.389 10.2106C17.5756 10.2106 17.7269 10.3663 17.7269 10.56V11.7099C17.7269 11.9034 17.5755 12.0592 17.3891 12.0591Z" fill="url(#paint13_linear_131_310)"/>
<path fill-rule="evenodd" clip-rule="evenodd" d="M11.7841 20.4263H8.29943C8.11292 20.4263 7.96167 20.2706 7.96167 20.077C7.96174 19.8841 8.11292 19.7284 8.29943 19.7284H11.7841C11.9707 19.7284 12.1219 19.8841 12.1219 20.077C12.1219 20.2705 11.9706 20.4263 11.7841 20.4263ZM22.6422 20.4263H13.0775C12.891 20.4263 12.7397 20.2706 12.7397 20.077C12.7399 19.8841 12.891 19.7284 13.0775 19.7284H22.6422C22.8287 19.7284 22.9799 19.8841 22.9799 20.077C22.98 20.2705 22.8286 20.4263 22.6422 20.4263Z" fill="url(#paint14_linear_131_310)"/>
<path fill-rule="evenodd" clip-rule="evenodd" d="M17.8641 22.3352H8.29943C8.11292 22.3352 7.96167 22.1795 7.96167 21.9859C7.96174 21.7931 8.11292 21.6366 8.29943 21.6366H17.8641C18.0506 21.6366 18.2018 21.7931 18.2018 21.9859C18.2018 22.1795 18.0505 22.3352 17.8641 22.3352ZM22.6422 22.3352H19.1575C18.971 22.3352 18.8196 22.1795 18.8196 21.9859C18.8198 21.7931 18.9709 21.6366 19.1574 21.6366H22.6422C22.8287 21.6366 22.9799 21.7931 22.9799 21.9859C22.98 22.1795 22.8286 22.3352 22.6422 22.3352Z" fill="url(#paint15_linear_131_310)"/>
<path fill-rule="evenodd" clip-rule="evenodd" d="M12.1218 20.5333H12.7398V19.6214H12.1218V20.5333ZM13.0775 21.2319H11.784C11.5969 21.2319 11.4463 21.0755 11.4463 20.8826L11.4464 19.272C11.4464 19.0792 11.5968 18.9227 11.784 18.9227H13.0775C13.264 18.9227 13.4152 19.0792 13.4152 19.2721L13.4152 20.8826C13.4152 21.0755 13.2639 21.2319 13.0775 21.2319Z" fill="url(#paint16_linear_131_310)"/>
<path fill-rule="evenodd" clip-rule="evenodd" d="M18.2016 22.4422H18.8196V21.5303H18.2016V22.4422ZM19.1574 23.1409H17.864C17.6774 23.1409 17.5261 22.9845 17.5261 22.7916L17.5263 21.181C17.5263 20.9881 17.6774 20.8317 17.8639 20.8317H19.1574C19.3439 20.8317 19.4951 20.9882 19.4951 21.181V22.7916C19.4951 22.9844 19.3437 23.1409 19.1574 23.1409Z" fill="url(#paint17_linear_131_310)"/>
</g>
<defs>
<linearGradient id="paint0_linear_131_310" x1="15.4708" y1="0" x2="15.4708" y2="18.775" gradientUnits="userSpaceOnUse">
<stop stop-color="#61C8FF"/>
<stop offset="1" stop-color="#0176FF"/>
</linearGradient>
<linearGradient id="paint1_linear_131_310" x1="15.4707" y1="9.03812" x2="15.4707" y2="27.6545" gradientUnits="userSpaceOnUse">
<stop stop-color="#61C8FF"/>
<stop offset="1" stop-color="#0176FF"/>
</linearGradient>
<linearGradient id="paint2_linear_131_310" x1="11.7861" y1="26.9556" x2="11.7861" y2="29.9885" gradientUnits="userSpaceOnUse">
<stop stop-color="#61C8FF"/>
<stop offset="1" stop-color="#0176FF"/>
</linearGradient>
<linearGradient id="paint3_linear_131_310" x1="19.1554" y1="26.9556" x2="19.1554" y2="29.9885" gradientUnits="userSpaceOnUse">
<stop stop-color="#61C8FF"/>
<stop offset="1" stop-color="#0176FF"/>
</linearGradient>
<linearGradient id="paint4_linear_131_310" x1="15.4707" y1="29.2898" x2="15.4707" y2="32" gradientUnits="userSpaceOnUse">
<stop stop-color="#61C8FF"/>
<stop offset="1" stop-color="#0176FF"/>
</linearGradient>
<linearGradient id="paint5_linear_131_310" x1="15.4706" y1="24.6867" x2="15.4706" y2="26.5847" gradientUnits="userSpaceOnUse">
<stop stop-color="#61C8FF"/>
<stop offset="1" stop-color="#0176FF"/>
</linearGradient>
<linearGradient id="paint6_linear_131_310" x1="15.4707" y1="23.6169" x2="15.4707" y2="24.3155" gradientUnits="userSpaceOnUse">
<stop stop-color="#61C8FF"/>
<stop offset="1" stop-color="#0176FF"/>
</linearGradient>
<linearGradient id="paint7_linear_131_310" x1="15.4703" y1="3.82516" x2="15.4703" y2="14.9491" gradientUnits="userSpaceOnUse">
<stop stop-color="#61C8FF"/>
<stop offset="1" stop-color="#0176FF"/>
</linearGradient>
<linearGradient id="paint8_linear_131_310" x1="15.4708" y1="9.03812" x2="15.4708" y2="9.73681" gradientUnits="userSpaceOnUse">
<stop stop-color="#61C8FF"/>
<stop offset="1" stop-color="#0176FF"/>
</linearGradient>
<linearGradient id="paint9_linear_131_310" x1="15.4708" y1="7.29074" x2="15.4708" y2="7.98944" gradientUnits="userSpaceOnUse">
<stop stop-color="#61C8FF"/>
<stop offset="1" stop-color="#0176FF"/>
</linearGradient>
<linearGradient id="paint10_linear_131_310" x1="15.4708" y1="10.7856" x2="15.4708" y2="11.4842" gradientUnits="userSpaceOnUse">
<stop stop-color="#61C8FF"/>
<stop offset="1" stop-color="#0176FF"/>
</linearGradient>
<linearGradient id="paint11_linear_131_310" x1="13.5521" y1="6.71584" x2="13.5521" y2="8.56434" gradientUnits="userSpaceOnUse">
<stop stop-color="#61C8FF"/>
<stop offset="1" stop-color="#0176FF"/>
</linearGradient>
<linearGradient id="paint12_linear_131_310" x1="15.4706" y1="8.46321" x2="15.4706" y2="10.3117" gradientUnits="userSpaceOnUse">
<stop stop-color="#61C8FF"/>
<stop offset="1" stop-color="#0176FF"/>
</linearGradient>
<linearGradient id="paint13_linear_131_310" x1="17.3891" y1="10.2106" x2="17.3891" y2="12.0591" gradientUnits="userSpaceOnUse">
<stop stop-color="#61C8FF"/>
<stop offset="1" stop-color="#0176FF"/>
</linearGradient>
<linearGradient id="paint14_linear_131_310" x1="15.4708" y1="19.7284" x2="15.4708" y2="20.4263" gradientUnits="userSpaceOnUse">
<stop stop-color="#61C8FF"/>
<stop offset="1" stop-color="#0176FF"/>
</linearGradient>
<linearGradient id="paint15_linear_131_310" x1="15.4708" y1="21.6366" x2="15.4708" y2="22.3352" gradientUnits="userSpaceOnUse">
<stop stop-color="#61C8FF"/>
<stop offset="1" stop-color="#0176FF"/>
</linearGradient>
<linearGradient id="paint16_linear_131_310" x1="12.4308" y1="18.9227" x2="12.4308" y2="21.2319" gradientUnits="userSpaceOnUse">
<stop stop-color="#61C8FF"/>
<stop offset="1" stop-color="#0176FF"/>
</linearGradient>
<linearGradient id="paint17_linear_131_310" x1="18.5106" y1="20.8317" x2="18.5106" y2="23.1409" gradientUnits="userSpaceOnUse">
<stop stop-color="#61C8FF"/>
<stop offset="1" stop-color="#0176FF"/>
</linearGradient>
<clipPath id="clip0_131_310">
<rect width="30.9414" height="32" fill="white"/>
</clipPath>
</defs>
</svg>
