<svg width="31" height="32" viewBox="0 0 31 32" fill="none" xmlns="http://www.w3.org/2000/svg">
<g clip-path="url(#clip0_131_334)">
<path d="M5.95155 5.42131H3.40384C3.15347 5.42131 2.9506 5.63112 2.9506 5.89006V8.525C2.9506 8.78394 3.15347 8.99375 3.40384 8.99375H5.95155C6.20192 8.99375 6.40479 8.78394 6.40479 8.525V5.89006C6.40479 5.63119 6.20192 5.42131 5.95155 5.42131ZM5.49831 8.05625H3.85709V6.35881H5.49831V8.05625ZM10.889 5.42131H8.34123C8.09086 5.42131 7.88798 5.63112 7.88798 5.89006V8.525C7.88798 8.78394 8.09086 8.99375 8.34123 8.99375H10.889C11.1394 8.99375 11.3422 8.78394 11.3422 8.525V5.89006C11.3422 5.63119 11.1393 5.42131 10.889 5.42131ZM10.4358 8.05625H8.79447V6.35881H10.4358V8.05625ZM13.2785 8.99375H15.8263C16.0766 8.99375 16.2795 8.78394 16.2795 8.525V5.89006C16.2795 5.63112 16.0766 5.42131 15.8263 5.42131H13.2785C13.0282 5.42131 12.8253 5.63112 12.8253 5.89006V8.525C12.8253 8.78394 13.0282 8.99375 13.2785 8.99375ZM13.7318 6.35881H15.373V8.05625H13.7318V6.35881ZM5.95155 10.7264H3.40384C3.15347 10.7264 2.9506 10.9362 2.9506 11.1952V13.8301C2.9506 14.0891 3.15347 14.2989 3.40384 14.2989H5.95155C6.20192 14.2989 6.40479 14.0891 6.40479 13.8301V11.1952C6.40479 10.9362 6.20192 10.7264 5.95155 10.7264ZM5.49831 13.3614H3.85709V11.6639H5.49831V13.3614ZM10.889 10.7264H8.34123C8.09086 10.7264 7.88798 10.9362 7.88798 11.1952V13.8301C7.88798 14.0891 8.09086 14.2989 8.34123 14.2989H10.889C11.1394 14.2989 11.3422 14.0891 11.3422 13.8301V11.1952C11.3422 10.9362 11.1393 10.7264 10.889 10.7264ZM10.4358 13.3614H8.79447V11.6639H10.4358V13.3614ZM13.2785 14.2989H15.8263C16.0766 14.2989 16.2795 14.0891 16.2795 13.8301V11.1952C16.2795 10.9362 16.0766 10.7264 15.8263 10.7264H13.2785C13.0282 10.7264 12.8253 10.9362 12.8253 11.1952V13.8301C12.8253 14.0891 13.0282 14.2989 13.2785 14.2989ZM13.7318 11.6639H15.373V13.3614H13.7318V11.6639ZM5.95155 16.0316H3.40384C3.15347 16.0316 2.9506 16.2414 2.9506 16.5003V19.1353C2.9506 19.3942 3.15347 19.604 3.40384 19.604H5.95155C6.20192 19.604 6.40479 19.3942 6.40479 19.1353V16.5003C6.40479 16.2414 6.20192 16.0316 5.95155 16.0316ZM5.49831 18.6665H3.85709V16.9691H5.49831V18.6665ZM10.889 16.0316H8.34123C8.09086 16.0316 7.88798 16.2414 7.88798 16.5003V19.1353C7.88798 19.3942 8.09086 19.604 8.34123 19.604H10.889C11.1394 19.604 11.3422 19.3942 11.3422 19.1353V16.5003C11.3422 16.2414 11.1393 16.0316 10.889 16.0316ZM10.4358 18.6665H8.79447V16.9691H10.4358V18.6665ZM16.2795 19.1353V16.5003C16.2795 16.2414 16.0766 16.0316 15.8263 16.0316H13.2785C13.0282 16.0316 12.8253 16.2414 12.8253 16.5003V19.1353C12.8253 19.3942 13.0282 19.604 13.2785 19.604H15.8263C16.0766 19.604 16.2795 19.3942 16.2795 19.1353ZM15.373 18.6665H13.7318V16.9691H15.373V18.6665ZM29.9739 21.9593H29.1475C28.8309 21.9593 28.5695 21.7786 28.4483 21.4761C28.327 21.1735 28.3884 20.8547 28.6124 20.6231L29.1968 20.0187C29.5503 19.6529 29.5503 19.0579 29.1968 18.6921L27.958 17.4109C27.787 17.2341 27.5593 17.1367 27.3167 17.1367C27.074 17.1367 26.8462 17.2342 26.6754 17.4109L26.0909 18.0153C25.867 18.2469 25.5587 18.3103 25.2661 18.1851C24.9735 18.0597 24.7989 17.7894 24.7989 17.4619V16.6071C24.7989 16.0899 24.3921 15.6691 23.8919 15.6691H22.14C21.6399 15.6691 21.233 16.0898 21.233 16.6071V17.4619C21.233 17.7894 21.0583 18.0597 20.7658 18.185C20.4731 18.3105 20.1648 18.2469 19.941 18.0153L19.3566 17.4109C19.3001 17.3526 19.2371 17.3037 19.1697 17.2634V3.0215C19.1697 2.76256 18.9669 2.55275 18.7165 2.55275H16.1791V0.53125C16.1791 0.272312 15.9762 0.0625 15.7259 0.0625H3.5044C3.25403 0.0625 3.05116 0.272312 3.05116 0.53125V2.55275H0.513789C0.263418 2.55275 0.0605469 2.76256 0.0605469 3.0215V31.4688C0.0605469 31.7277 0.263418 31.9375 0.513789 31.9375H18.7164C18.9667 31.9375 19.1696 31.7277 19.1696 31.4688V30.3429C19.2363 30.3029 19.2995 30.2546 19.3565 30.1956L19.9409 29.5912C20.1648 29.3596 20.4733 29.2961 20.7657 29.4216C21.0582 29.5469 21.2329 29.8172 21.2329 30.1447V30.9994C21.2329 31.5167 21.6397 31.9375 22.1399 31.9375H23.8917C24.3919 31.9375 24.7988 31.5168 24.7988 30.9994V30.1447C24.7988 29.8172 24.9735 29.5468 25.266 29.4215C25.5585 29.2963 25.8668 29.3596 26.0908 29.5912L26.6752 30.1956C27.0288 30.5613 27.6042 30.5613 27.958 30.1956L29.1968 28.9144C29.5503 28.5486 29.5503 27.9536 29.1967 27.5878L28.6123 26.9834C28.3884 26.7519 28.327 26.4329 28.4482 26.1304C28.5694 25.8279 28.8307 25.6472 29.1474 25.6472H29.9739C30.474 25.6472 30.881 25.2264 30.881 24.7091V22.8974C30.881 22.3801 30.4741 21.9593 29.9739 21.9593ZM3.95765 1H15.2725V2.55275H3.95765V1ZM14.0992 31H10.0683V23.0327H14.0992V31ZM9.16184 31H5.131V23.0327H9.16178L9.16184 31ZM15.0056 31V22.564C15.0056 22.3051 14.8028 22.0952 14.5524 22.0952H4.67776C4.42739 22.0952 4.22452 22.3051 4.22452 22.564V31H0.967032V3.49025H18.2631V17.2617C18.1948 17.3024 18.1309 17.3518 18.0737 17.4109L16.835 18.692C16.664 18.8689 16.5699 19.1044 16.5699 19.3553C16.5699 19.6062 16.664 19.8418 16.835 20.0186L17.4194 20.623C17.6433 20.8546 17.7047 21.1735 17.5835 21.4759C17.4623 21.7786 17.2008 21.9592 16.8842 21.9592H16.0578C15.5576 21.9592 15.1507 22.3799 15.1507 22.8972V24.709C15.1507 25.2262 15.5576 25.6471 16.0578 25.6471H16.8842C17.2009 25.6471 17.4623 25.8277 17.5834 26.1303C17.7047 26.4329 17.6433 26.7518 17.4194 26.9833L16.8351 27.5876C16.6641 27.7644 16.5699 28.0001 16.5699 28.251C16.5699 28.5019 16.664 28.7374 16.835 28.9143L18.0737 30.1954C18.1314 30.2551 18.1955 30.3041 18.2631 30.3442V31H15.0056ZM29.9739 24.7097H29.1475C28.4619 24.7097 27.8731 25.1166 27.6107 25.7716C27.3484 26.4266 27.4866 27.145 27.9713 27.6464L28.5557 28.2515L27.3162 29.5326L26.7318 28.9283C26.2471 28.427 25.5527 28.2839 24.9191 28.5553C24.2858 28.8266 23.8923 29.4356 23.8923 30.1447L23.8918 31L22.1394 30.9994V30.1447C22.1394 29.4356 21.746 28.8267 21.1126 28.5554C20.9004 28.4644 20.6813 28.42 20.4655 28.42C20.0374 28.42 19.6222 28.5949 19.2999 28.9282L18.7148 29.5326L17.4761 28.2507L18.0604 27.6463C18.5452 27.145 18.6833 26.4266 18.421 25.7716C18.1587 25.1166 17.5698 24.7097 16.8842 24.7097L16.0572 24.7091L16.0578 22.8967H16.8842C17.5697 22.8967 18.1586 22.4898 18.421 21.8348C18.6834 21.1798 18.5452 20.4614 18.0604 19.9601L17.4761 19.3549L18.7155 18.0738L19.2999 18.6782C19.7846 19.1794 20.4792 19.3223 21.1126 19.0511C21.746 18.7797 22.1394 18.1708 22.1394 17.4618L22.1399 16.6064L23.8924 16.607V17.4618C23.8924 18.1708 24.2859 18.7798 24.9191 19.0511C25.5525 19.3223 26.2471 19.1796 26.7318 18.6782L27.317 18.0738L28.5558 19.3557L27.9715 19.9601C27.4866 20.4614 27.3484 21.1798 27.6108 21.8348C27.8732 22.4898 28.462 22.8967 29.1476 22.8967L29.9746 22.8973L29.9739 24.7097ZM23.0159 19.5491C20.7478 19.5491 18.9026 21.4575 18.9026 23.8032C18.9026 26.149 20.7478 28.0574 23.0159 28.0574C25.284 28.0574 27.1293 26.149 27.1293 23.8032C27.1293 21.4575 25.284 19.5491 23.0159 19.5491ZM23.0159 27.1199C21.2476 27.1199 19.809 25.6321 19.809 23.8033C19.809 21.9746 21.2476 20.4867 23.0159 20.4867C24.7841 20.4867 26.2228 21.9746 26.2228 23.8033C26.2228 25.6321 24.7841 27.1199 23.0159 27.1199ZM24.4388 24.7206C24.4388 25.3521 24.0284 25.8862 23.4691 26.0529V26.2594C23.4691 26.5184 23.2662 26.7282 23.0158 26.7282C22.7655 26.7282 22.5626 26.5184 22.5626 26.2594V26.0252C22.0459 25.8326 21.6756 25.3206 21.6756 24.7207C21.6756 24.4618 21.8784 24.2519 22.1288 24.2519C22.3792 24.2519 22.582 24.4618 22.582 24.7207C22.582 24.9681 22.7766 25.1693 23.0158 25.1693H23.0985C23.3377 25.1693 23.5323 24.968 23.5323 24.7206C23.5323 24.4732 23.3377 24.272 23.0985 24.272H22.9332C22.1941 24.272 21.5929 23.6502 21.5929 22.8858C21.5929 22.2544 22.0032 21.7202 22.5626 21.5536V21.347C22.5626 21.0881 22.7655 20.8783 23.0158 20.8783C23.2662 20.8783 23.4691 21.0881 23.4691 21.347V21.5812C23.9857 21.7739 24.3561 22.2859 24.3561 22.8858C24.3561 23.1448 24.1532 23.3546 23.9029 23.3546C23.6525 23.3546 23.4496 23.1448 23.4496 22.8858C23.4496 22.6384 23.255 22.4372 23.0158 22.4372H22.9332C22.694 22.4372 22.4994 22.6384 22.4994 22.8858C22.4994 23.1332 22.694 23.3345 22.9332 23.3345H23.0985C23.8376 23.3346 24.4388 23.9564 24.4388 24.7206Z" fill="url(#paint0_linear_131_334)"/>
</g>
<defs>
<linearGradient id="paint0_linear_131_334" x1="15.4708" y1="0.0625" x2="15.4708" y2="31.9375" gradientUnits="userSpaceOnUse">
<stop stop-color="#61C8FF"/>
<stop offset="1" stop-color="#0170FF"/>
</linearGradient>
<clipPath id="clip0_131_334">
<rect width="30.9414" height="32" fill="white"/>
</clipPath>
</defs>
</svg>
