<svg width="32" height="32" viewBox="0 0 32 32" fill="none" xmlns="http://www.w3.org/2000/svg">
<path d="M23.8836 5.18307C23.4861 5.18307 23.0982 5.21701 22.72 5.28489C21.8909 2.98186 19.7333 1.45459 17.2606 1.45459C14.7006 1.45459 12.4703 3.10792 11.7188 5.51762C11.1079 5.29459 10.4679 5.18307 9.80364 5.18307C6.77819 5.18307 4.30061 7.57823 4.16485 10.5746C2.57455 11.1564 1.48364 12.7031 1.48364 14.4097C1.48364 16.6497 3.31637 18.4776 5.57092 18.4776H7.83031V26.914V27.9952C7.83031 29.4013 8.97455 30.5503 10.3855 30.5503H20.7273C22.1333 30.5503 23.2824 29.4061 23.2824 27.9952V26.914V18.4776H23.8836C27.5442 18.4776 30.5164 15.491 30.5164 11.8207C30.5164 8.16004 27.5394 5.18307 23.8836 5.18307ZM17.8376 10.6134L17.6388 11.7043C17.5903 11.9661 17.3624 12.16 17.0909 12.16H14.017C13.7503 12.16 13.5176 11.9661 13.4691 11.7043L13.2703 10.6134H17.8376ZM12.5964 10.594L12.8194 11.8207C12.9261 12.4025 13.4303 12.8243 14.0218 12.8243H17.0958C17.6873 12.8243 18.1915 12.4025 18.2982 11.8207L18.5212 10.594H20.7321C21.7746 10.594 22.6182 11.4425 22.6182 12.48V26.5794H8.4994V12.4849C8.4994 11.4425 9.34789 10.5988 10.3855 10.5988H12.5964V10.594ZM22.6133 27.9903C22.6133 29.0328 21.7649 29.8764 20.7273 29.8764H10.3855C9.34304 29.8764 8.4994 29.0279 8.4994 27.9903V27.2437H22.6133V27.9903ZM23.8836 17.8085L23.8739 17.8425C23.8303 17.8231 23.7818 17.8085 23.7285 17.8085H23.2824V12.4849C23.2824 11.0788 22.1382 9.92974 20.7273 9.92974H10.3855C8.9794 9.92974 7.83031 11.074 7.83031 12.4849V17.8134H5.57092C3.68485 17.8134 2.14788 16.2861 2.14788 14.4146C2.14788 12.9164 3.15152 11.5685 4.58667 11.137C4.72728 11.0934 4.82425 10.9673 4.82425 10.817C4.8291 8.07762 7.06425 5.85217 9.80364 5.85217C10.5018 5.85217 11.1758 5.99277 11.8061 6.27398C11.8982 6.31277 12 6.31277 12.0873 6.26914C12.1746 6.2255 12.2424 6.14307 12.2618 6.05095C12.8194 3.74307 14.8752 2.12853 17.2558 2.12853C19.5394 2.12853 21.5127 3.59277 22.177 5.77459C22.2255 5.94429 22.4 6.0461 22.5697 6.00247C22.9867 5.9055 23.4279 5.85701 23.8788 5.85701C27.1709 5.85701 29.8473 8.53338 29.8473 11.8255C29.8521 15.1225 27.1758 17.8085 23.8836 17.8085Z" fill="url(#paint0_linear_395_45)"/>
<path d="M23.8836 7.18555C23.6994 7.18555 23.5491 7.33585 23.5491 7.52009C23.5491 7.70433 23.6994 7.85464 23.8836 7.85464C26.0703 7.85464 27.8497 9.63403 27.8497 11.8255C27.8497 12.0098 28 12.1601 28.1842 12.1601C28.3685 12.1601 28.5188 12.0098 28.5188 11.8255C28.5139 9.26555 26.4388 7.18555 23.8836 7.18555Z" fill="url(#paint1_linear_395_45)"/>
<path d="M14.0169 28.897H17.0957C17.2799 28.897 17.4303 28.7467 17.4303 28.5625C17.4303 28.3782 17.2799 28.2279 17.0957 28.2279H14.0169C13.8327 28.2279 13.6824 28.3782 13.6824 28.5625C13.6824 28.7467 13.8327 28.897 14.0169 28.897Z" fill="url(#paint2_linear_395_45)"/>
<path d="M12.9842 15.2825C17.0618 15.2825 20.3781 18.5989 20.3781 22.6764C20.3781 22.8607 20.5284 23.011 20.7127 23.011C20.8969 23.011 21.0472 22.8607 21.0472 22.6764C21.0472 18.2304 17.4303 14.6134 12.9842 14.6134C12.8 14.6134 12.6497 14.7637 12.6497 14.9479C12.6497 15.1322 12.8 15.2825 12.9842 15.2825Z" fill="url(#paint3_linear_395_45)"/>
<path d="M12.9842 16.834C12.8 16.834 12.6497 16.9843 12.6497 17.1685C12.6497 17.3528 12.8 17.5031 12.9842 17.5031C15.8351 17.5031 18.1575 19.8255 18.1575 22.6764C18.1575 22.8607 18.3078 23.011 18.4921 23.011C18.6763 23.011 18.8266 22.8607 18.8266 22.6764C18.8218 19.457 16.2036 16.834 12.9842 16.834Z" fill="url(#paint4_linear_395_45)"/>
<path d="M12.9842 19.0546C12.8 19.0546 12.6497 19.2049 12.6497 19.3891C12.6497 19.5734 12.8 19.7237 12.9842 19.7237C14.6133 19.7237 15.9369 21.0473 15.9369 22.6764C15.9369 22.8606 16.0872 23.0109 16.2715 23.0109C16.4557 23.0109 16.606 22.8606 16.606 22.6764C16.6012 20.6788 14.9769 19.0546 12.9842 19.0546Z" fill="url(#paint5_linear_395_45)"/>
<path d="M12.9842 24.0727C13.7551 24.0727 14.3806 23.4473 14.3806 22.6715C14.3806 21.9006 13.7551 21.2751 12.9842 21.2751C12.2133 21.2751 11.583 21.9006 11.583 22.6715C11.583 23.4473 12.2133 24.0727 12.9842 24.0727ZM12.9842 21.9442C13.3866 21.9442 13.7163 22.2739 13.7163 22.6764C13.7163 23.0788 13.3866 23.4085 12.9842 23.4085C12.5818 23.4085 12.2521 23.0788 12.2521 22.6764C12.2521 22.2739 12.5818 21.9442 12.9842 21.9442Z" fill="url(#paint6_linear_395_45)"/>
<defs>
<linearGradient id="paint0_linear_395_45" x1="16" y1="1.45459" x2="16" y2="30.5503" gradientUnits="userSpaceOnUse">
<stop stop-color="#56BEFF"/>
<stop offset="0.975" stop-color="#0170FF"/>
</linearGradient>
<linearGradient id="paint1_linear_395_45" x1="26.0339" y1="7.18555" x2="26.0339" y2="12.1601" gradientUnits="userSpaceOnUse">
<stop stop-color="#56BEFF"/>
<stop offset="0.975" stop-color="#0170FF"/>
</linearGradient>
<linearGradient id="paint2_linear_395_45" x1="15.5563" y1="28.2279" x2="15.5563" y2="28.897" gradientUnits="userSpaceOnUse">
<stop stop-color="#56BEFF"/>
<stop offset="0.975" stop-color="#0170FF"/>
</linearGradient>
<linearGradient id="paint3_linear_395_45" x1="16.8484" y1="14.6134" x2="16.8484" y2="23.011" gradientUnits="userSpaceOnUse">
<stop stop-color="#56BEFF"/>
<stop offset="0.975" stop-color="#0170FF"/>
</linearGradient>
<linearGradient id="paint4_linear_395_45" x1="15.7381" y1="16.834" x2="15.7381" y2="23.011" gradientUnits="userSpaceOnUse">
<stop stop-color="#56BEFF"/>
<stop offset="0.975" stop-color="#0170FF"/>
</linearGradient>
<linearGradient id="paint5_linear_395_45" x1="14.6278" y1="19.0546" x2="14.6278" y2="23.0109" gradientUnits="userSpaceOnUse">
<stop stop-color="#56BEFF"/>
<stop offset="0.975" stop-color="#0170FF"/>
</linearGradient>
<linearGradient id="paint6_linear_395_45" x1="12.9818" y1="21.2751" x2="12.9818" y2="24.0727" gradientUnits="userSpaceOnUse">
<stop stop-color="#56BEFF"/>
<stop offset="0.975" stop-color="#0170FF"/>
</linearGradient>
</defs>
</svg>
