<svg width="31" height="32" viewBox="0 0 31 32" fill="none" xmlns="http://www.w3.org/2000/svg">
<path d="M2.78966 13.2876C2.05498 13.2876 1.45728 12.6694 1.45728 11.9096C1.45728 11.151 2.05498 10.5338 2.78966 10.5338C3.5232 10.5338 4.1199 11.151 4.1199 11.9096C4.1199 12.6694 3.5232 13.2876 2.78966 13.2876ZM2.78966 10.991C2.29872 10.991 1.89929 11.403 1.89929 11.9096C1.89929 12.4173 2.29872 12.8304 2.78966 12.8304C3.27945 12.8304 3.67788 12.4173 3.67788 11.9096C3.67788 11.403 3.27945 10.991 2.78966 10.991Z" fill="url(#paint0_linear_131_210)"/>
<path d="M15.4636 18.7795C15.4369 18.7795 15.4103 18.7745 15.385 18.7646L4.18127 14.3606C4.0958 14.327 4.03911 14.2424 4.03882 14.1478C4.03853 14.0532 4.0945 13.9682 4.17983 13.934L6.0305 13.1904C6.14431 13.1446 6.27237 13.2031 6.31654 13.3207C6.36072 13.4383 6.30431 13.5708 6.1905 13.6164L4.87566 14.1448L15.4625 18.306L25.9568 14.0685L24.7388 13.5929C24.6245 13.5483 24.5668 13.4164 24.61 13.2983C24.6533 13.1801 24.7815 13.1208 24.8947 13.1652L26.6512 13.8509C26.7366 13.8843 26.7935 13.9688 26.794 14.0634C26.7946 14.158 26.7386 14.2432 26.6535 14.2776L15.544 18.7638C15.5181 18.7743 15.4909 18.7795 15.4636 18.7795Z" fill="url(#paint1_linear_131_210)"/>
<path d="M6.11041 15.104C5.9884 15.104 5.8894 15.0017 5.8894 14.8754V3.75163C5.8894 2.38705 6.96409 1.27693 8.28511 1.27693H22.6448C23.9643 1.27693 25.0377 2.38705 25.0377 3.75163V14.7748C25.0377 14.9011 24.9387 15.0034 24.8167 15.0034C24.6947 15.0034 24.5957 14.9011 24.5957 14.7748V3.75163C24.5957 2.63913 23.7205 1.73407 22.6448 1.73407H8.28511C7.20784 1.73407 6.33142 2.63913 6.33142 3.75163V14.8754C6.33142 15.0017 6.23243 15.104 6.11041 15.104Z" fill="url(#paint2_linear_131_210)"/>
<path d="M7.60162 15.6891C7.47961 15.6891 7.38062 15.5868 7.38062 15.4606V6.61942C7.38062 5.94219 7.91328 5.39122 8.56811 5.39122H22.3592C23.014 5.39122 23.5467 5.94219 23.5467 6.61942V15.3752C23.5467 15.5015 23.4477 15.6038 23.3257 15.6038C23.2037 15.6038 23.1047 15.5015 23.1047 15.3752V6.61942C23.1047 6.19427 22.7703 5.84836 22.3592 5.84836H8.56811C8.15703 5.84836 7.82263 6.19427 7.82263 6.61942V15.4606C7.82263 15.5868 7.72364 15.6891 7.60162 15.6891Z" fill="url(#paint3_linear_131_210)"/>
<path d="M15.7198 18.6758H15.2012C15.0792 18.6758 14.9802 18.5735 14.9802 18.4472C14.9802 18.321 15.0792 18.2187 15.2012 18.2187H15.7198C15.8418 18.2187 15.9408 18.321 15.9408 18.4472C15.9408 18.5735 15.8418 18.6758 15.7198 18.6758Z" fill="url(#paint4_linear_131_210)"/>
<path d="M8.55528 4.01264C8.15442 4.01264 7.82837 3.67544 7.82837 3.26093C7.82837 2.8465 8.15442 2.50929 8.55528 2.50929C8.95601 2.50929 9.28205 2.8465 9.28205 3.26093C9.28205 3.67544 8.95601 4.01264 8.55528 4.01264ZM8.55528 2.96644C8.39816 2.96644 8.27039 3.09858 8.27039 3.26093C8.27039 3.42336 8.39816 3.5555 8.55528 3.5555C8.71226 3.5555 8.84004 3.42336 8.84004 3.26093C8.84004 3.09858 8.71226 2.96644 8.55528 2.96644Z" fill="url(#paint5_linear_131_210)"/>
<path d="M10.3512 4.01264C9.95031 4.01264 9.62427 3.67544 9.62427 3.26093C9.62427 2.8465 9.95031 2.50929 10.3512 2.50929C10.7519 2.50929 11.078 2.8465 11.078 3.26093C11.078 3.67544 10.7519 4.01264 10.3512 4.01264ZM10.3512 2.96644C10.1941 2.96644 10.0663 3.09858 10.0663 3.26093C10.0663 3.42336 10.1941 3.5555 10.3512 3.5555C10.5082 3.5555 10.6359 3.42336 10.6359 3.26093C10.6359 3.09858 10.5082 2.96644 10.3512 2.96644Z" fill="url(#paint6_linear_131_210)"/>
<path d="M12.1471 4.01264C11.7462 4.01264 11.4202 3.67544 11.4202 3.26093C11.4202 2.8465 11.7462 2.50929 12.1471 2.50929C12.5478 2.50929 12.8739 2.8465 12.8739 3.26093C12.8739 3.67544 12.5478 4.01264 12.1471 4.01264ZM12.1471 2.96644C11.99 2.96644 11.8622 3.09858 11.8622 3.26093C11.8622 3.42336 11.99 3.5555 12.1471 3.5555C12.3041 3.5555 12.4318 3.42336 12.4318 3.26093C12.4318 3.09858 12.3041 2.96644 12.1471 2.96644Z" fill="url(#paint7_linear_131_210)"/>
<path d="M22.5246 3.48951H15.4637C15.3417 3.48951 15.2427 3.3872 15.2427 3.26094C15.2427 3.13467 15.3417 3.03236 15.4637 3.03236H22.5246C22.6466 3.03236 22.7456 3.13467 22.7456 3.26094C22.7456 3.3872 22.6466 3.48951 22.5246 3.48951Z" fill="url(#paint8_linear_131_210)"/>
<path d="M15.4665 18.7795C15.4398 18.7795 15.4101 18.7744 15.3849 18.7646L4.21028 14.3721C4.11057 14.3503 4.03589 14.2597 4.03589 14.1501V14.147C4.03574 13.9931 4.19862 13.8788 4.33834 13.9333L15.4649 18.307L26.5917 13.9333C26.7315 13.8789 26.8943 13.9931 26.8941 14.147C26.8941 14.2564 26.8199 14.349 26.7206 14.3718L15.5451 18.7646C15.5199 18.7744 15.4933 18.7795 15.4665 18.7795Z" fill="url(#paint9_linear_131_210)"/>
<path d="M15.4665 30.7231C15.4399 30.7231 15.4133 30.7181 15.3881 30.7082L4.17848 26.3044C4.09258 26.2707 4.03589 26.1856 4.03589 26.0907V19.648C4.03589 19.5217 4.13488 19.4194 4.2569 19.4194C4.37891 19.4194 4.47791 19.5217 4.47791 19.648V25.933L15.4665 30.25L26.4521 25.933V19.648C26.4521 19.5217 26.5511 19.4194 26.6731 19.4194C26.7951 19.4194 26.8941 19.5217 26.8941 19.648V26.0907C26.8941 26.1856 26.8374 26.2707 26.7517 26.3044L15.5451 30.7082C15.5198 30.7181 15.4931 30.7231 15.4665 30.7231Z" fill="url(#paint10_linear_131_210)"/>
<path d="M15.4666 30.7219C15.3446 30.7219 15.2456 30.6196 15.2456 30.4933V18.5508C15.2456 18.4246 15.3446 18.3223 15.4666 18.3223C15.5886 18.3223 15.6876 18.4246 15.6876 18.5508V30.4933C15.6876 30.6196 15.5886 30.7219 15.4666 30.7219Z" fill="url(#paint11_linear_131_210)"/>
<path d="M18.6864 23.1311C18.6192 23.1311 18.5537 23.0993 18.5109 23.0415L15.29 18.6914C15.2475 18.634 15.2337 18.5593 15.2528 18.4899C15.2718 18.4205 15.3216 18.3644 15.3868 18.3388L26.5909 13.932C26.6835 13.8953 26.7889 13.9274 26.8476 14.0103L29.8763 18.2786C29.9169 18.3358 29.9295 18.4092 29.9105 18.4772C29.8916 18.5454 29.8429 18.6005 29.7792 18.6265L18.7674 23.1152C18.7411 23.126 18.7136 23.1311 18.6864 23.1311ZM15.8212 18.657L18.7605 22.6266L29.3503 18.31L26.5908 14.4211L15.8212 18.657Z" fill="url(#paint12_linear_131_210)"/>
<path d="M12.2438 23.1311C12.2166 23.1311 12.1891 23.126 12.1628 23.1152L1.15101 18.6265C1.08726 18.6005 1.03863 18.5454 1.01964 18.4772C1.00064 18.4092 1.01331 18.3358 1.05388 18.2786L4.08255 14.0103C4.1414 13.9274 4.24672 13.8955 4.33924 13.932L15.5433 18.3388C15.6084 18.3644 15.6582 18.4205 15.6772 18.4899C15.6963 18.5593 15.6825 18.634 15.6402 18.6914L12.4193 23.0415C12.3765 23.0993 12.311 23.1311 12.2438 23.1311ZM1.57993 18.31L12.1697 22.6266L15.1089 18.657L4.33939 14.4211L1.57993 18.31Z" fill="url(#paint13_linear_131_210)"/>
<path d="M20.6136 30.0351C20.5249 30.0351 20.441 29.9792 20.4073 29.8883C20.3636 29.7704 20.4205 29.6382 20.5345 29.5931L23.7754 28.3082C23.8894 28.2627 24.0173 28.3218 24.0609 28.4397C24.1046 28.5577 24.0476 28.6898 23.9337 28.735L20.6928 30.0199C20.6667 30.0302 20.64 30.0351 20.6136 30.0351Z" fill="url(#paint14_linear_131_210)"/>
<path d="M19.3519 30.5499C19.2637 30.5499 19.1803 30.4949 19.1462 30.4047C19.1016 30.2872 19.1577 30.1545 19.2712 30.1085L19.6665 29.9482C19.7793 29.9025 19.9085 29.9599 19.953 30.0776C19.9976 30.1951 19.9414 30.3278 19.8279 30.3738L19.4327 30.5341C19.4062 30.5448 19.3788 30.5499 19.3519 30.5499Z" fill="url(#paint15_linear_131_210)"/>
<path d="M15.8571 16.8007C15.8551 16.8007 15.8531 16.8007 15.8511 16.8007L14.9742 16.7907C14.7384 16.788 14.5312 16.6215 14.4703 16.3857L14.3802 16.0358C14.0431 15.9406 13.7198 15.798 13.4159 15.6103L13.1079 15.7845C12.9012 15.9012 12.6422 15.8612 12.4775 15.6871L11.8648 15.0391C11.7002 14.8653 11.6673 14.5964 11.7847 14.3854L11.9598 14.0708C11.7853 13.7524 11.6545 13.4149 11.5699 13.0643L11.2339 12.9633C11.0073 12.8952 10.8509 12.6774 10.8533 12.4334L10.8631 11.5263C10.8655 11.2823 11.0267 11.0679 11.2549 11.0051L11.593 10.912C11.685 10.5638 11.823 10.2289 12.0044 9.91325L11.8365 9.59621C11.7234 9.38274 11.7618 9.11459 11.9299 8.9442L12.5559 8.30975C12.7248 8.13854 12.9851 8.10484 13.19 8.22753L13.4919 8.40878C13.8008 8.22813 14.1276 8.09241 14.4663 8.00409L14.5637 7.65767C14.6299 7.42329 14.8433 7.26488 15.0762 7.26451L15.9534 7.27456C16.1893 7.27723 16.3967 7.44375 16.4572 7.67954L16.5473 8.02805C16.8866 8.12478 17.2103 8.26734 17.5129 8.4532L17.8194 8.27947C18.0259 8.16243 18.2853 8.20231 18.4501 8.37642L19.0643 9.02582C19.2291 9.20023 19.2619 9.46927 19.144 9.68028L18.9694 9.99316C19.1423 10.3104 19.273 10.6484 19.3589 11.001L19.694 11.1018C19.9206 11.1701 20.0769 11.388 20.0741 11.6318L20.0643 12.539C20.0619 12.7829 19.9009 12.9972 19.673 13.0601L19.3358 13.1533C19.2423 13.5045 19.1045 13.8388 18.9249 14.1505L19.0931 14.469C19.2062 14.6827 19.1673 14.951 18.9986 15.1211L18.3709 15.755C18.2024 15.9251 17.9422 15.9589 17.7386 15.8371L17.4358 15.6563C17.1266 15.8371 16.7998 15.9723 16.4613 16.0597L16.3637 16.4072C16.2984 16.6397 16.0906 16.8007 15.8571 16.8007ZM13.4228 15.1173C13.4646 15.1173 13.506 15.1295 13.5424 15.1536C13.8743 15.3743 14.2339 15.533 14.611 15.6249C14.6905 15.6443 14.7531 15.7071 14.7739 15.7885L14.8974 16.2679C14.9073 16.306 14.9408 16.3331 14.9791 16.3336L15.8561 16.3436C15.8958 16.3394 15.9285 16.3177 15.9393 16.2798L16.0729 15.8035C16.0957 15.7225 16.1595 15.6612 16.2391 15.6436C16.6175 15.5604 16.9813 15.41 17.32 15.1966C17.3891 15.1532 17.4755 15.1521 17.5455 15.1939L17.9596 15.4412C17.9928 15.4611 18.0351 15.4553 18.0623 15.4278L18.6899 14.794C18.7173 14.7664 18.7236 14.7229 18.7053 14.6883L18.4753 14.253C18.4365 14.1796 18.4396 14.0902 18.4833 14.0198C18.6943 13.6804 18.8476 13.3082 18.9391 12.9135C18.9581 12.832 19.0187 12.7677 19.0971 12.7461L19.559 12.6185C19.5958 12.6083 19.6219 12.5736 19.6223 12.5341L19.6321 11.6267C19.6325 11.5871 19.6072 11.5518 19.5704 11.5407L19.1115 11.4026C19.0337 11.3792 18.9744 11.3135 18.9573 11.2315C18.8743 10.8359 18.7288 10.4595 18.5249 10.1128C18.4829 10.0414 18.4819 9.95201 18.5223 9.87969L18.7613 9.45164C18.7804 9.41741 18.7751 9.37374 18.7482 9.34539L18.1341 8.69606C18.1075 8.66786 18.0655 8.66124 18.0319 8.68036L17.6127 8.91801C17.542 8.95796 17.4554 8.95514 17.3873 8.91012C17.0573 8.69159 16.6967 8.53289 16.3155 8.43825C16.2368 8.41868 16.1747 8.35603 16.1536 8.275L16.0302 7.79732C16.0204 7.75901 15.9867 7.73214 15.9485 7.7317L15.0713 7.72165C15.0713 7.72158 15.0706 7.72158 15.0703 7.72165C15.0325 7.72165 14.9988 7.74777 14.988 7.78557L14.8546 8.26005C14.8319 8.34063 14.7685 8.40194 14.689 8.41964C14.31 8.50424 13.9461 8.65536 13.6074 8.86868C13.5382 8.91206 13.4513 8.91317 13.3815 8.87113L12.9681 8.62292C12.9348 8.60298 12.8926 8.60841 12.8653 8.63624L12.2392 9.27069C12.212 9.29837 12.2057 9.34189 12.2241 9.37656L12.4539 9.8102C12.4927 9.88348 12.4899 9.97284 12.4463 10.0432C12.2325 10.3886 12.0791 10.7612 11.9903 11.1507C11.9716 11.2327 11.9109 11.2975 11.8322 11.3191L11.3687 11.4469C11.3316 11.4571 11.3055 11.4917 11.3051 11.5313L11.2953 12.4383C11.2949 12.4778 11.3204 12.5132 11.3572 12.5243L11.8176 12.6627C11.8959 12.6862 11.9553 12.7522 11.9722 12.8346C12.0529 13.2267 12.1982 13.602 12.4041 13.9501C12.4464 14.0214 12.4476 14.111 12.4071 14.1835L12.1677 14.6135C12.1487 14.6476 12.154 14.6912 12.1808 14.7194L12.7936 15.3676C12.8202 15.3957 12.8621 15.4023 12.8958 15.3833L13.3168 15.1452C13.3499 15.1266 13.3864 15.1173 13.4228 15.1173Z" fill="url(#paint16_linear_131_210)"/>
<path d="M15.4643 15.0482C15.4534 15.0482 15.4425 15.0482 15.4315 15.0481C13.8239 15.0295 12.5303 13.6618 12.548 11.9992C12.5659 10.3365 13.8928 9.00766 15.4961 9.01719C17.1038 9.03571 18.3972 10.4034 18.3795 12.0661C18.3618 13.7174 17.057 15.0482 15.4643 15.0482ZM15.4635 9.47418C14.1119 9.47418 13.0052 10.6032 12.9901 12.0042C12.9749 13.4149 14.0725 14.5752 15.4364 14.5909C15.4456 14.5911 15.455 14.5911 15.4642 14.5911C16.8156 14.5911 17.9223 13.4621 17.9374 12.061C17.9526 10.6504 16.8551 9.49003 15.4912 9.47433C15.482 9.47418 15.4727 9.47418 15.4635 9.47418Z" fill="url(#paint17_linear_131_210)"/>
<path d="M4.91413 4.82641C4.79211 4.82641 4.69312 4.72411 4.69312 4.59784V4.17753C4.69312 4.05127 4.79211 3.94896 4.91413 3.94896C5.03614 3.94896 5.13513 4.05127 5.13513 4.17753V4.59784C5.13513 4.72411 5.03614 4.82641 4.91413 4.82641Z" fill="url(#paint18_linear_131_210)"/>
<path d="M4.91413 10.5407C4.79211 10.5407 4.69312 10.4384 4.69312 10.3121V5.61941C4.69312 5.49315 4.79211 5.39084 4.91413 5.39084C5.03614 5.39084 5.13513 5.49315 5.13513 5.61941V10.3121C5.13513 10.4384 5.03614 10.5407 4.91413 10.5407Z" fill="url(#paint19_linear_131_210)"/>
<path d="M27.9345 6.19783C27.8072 6.19783 27.7 6.10676 27.6738 5.9764C27.5974 5.58756 27.4129 5.23429 27.14 4.95401C26.8675 4.67015 26.5266 4.47931 26.1532 4.40096C26.0261 4.3735 25.9382 4.26264 25.9382 4.13117C25.9382 3.99962 26.0261 3.88875 26.152 3.8616C26.5259 3.78317 26.8676 3.5921 27.1414 3.30884C27.4135 3.02752 27.5975 2.6741 27.6736 2.28682C27.7 2.1555 27.8072 2.0645 27.9345 2.0645C28.0617 2.0645 28.1689 2.1555 28.1951 2.28578C28.2714 2.67402 28.4552 3.02745 28.7273 3.30884C29.0013 3.5921 29.343 3.78317 29.7155 3.8613C29.8427 3.88875 29.9307 3.99962 29.9307 4.13117C29.9307 4.26264 29.8427 4.3735 29.7168 4.40066C29.7167 4.40073 29.7164 4.40073 29.7163 4.40081C28.9502 4.5639 28.3532 5.18228 28.1951 5.97611C28.1689 6.10676 28.0617 6.19783 27.9345 6.19783ZM26.7657 4.13109C27.0191 4.25289 27.2513 4.42127 27.4525 4.63072C27.6544 4.83801 27.817 5.07841 27.9347 5.34136C28.1731 4.80728 28.5878 4.37804 29.1034 4.13131C28.8502 4.00966 28.6173 3.84143 28.4148 3.63213C28.2137 3.4241 28.0518 3.18384 27.9345 2.92172C27.8171 3.18377 27.6551 3.4241 27.4539 3.63213C27.2518 3.84128 27.019 4.00944 26.7657 4.13109Z" fill="url(#paint20_linear_131_210)"/>
<defs>
<linearGradient id="paint0_linear_131_210" x1="2.78859" y1="10.5338" x2="2.78859" y2="13.2876" gradientUnits="userSpaceOnUse">
<stop stop-color="#56BEFF"/>
<stop offset="1" stop-color="#0176FF"/>
</linearGradient>
<linearGradient id="paint1_linear_131_210" x1="15.4164" y1="13.1505" x2="15.4164" y2="18.7795" gradientUnits="userSpaceOnUse">
<stop stop-color="#56BEFF"/>
<stop offset="1" stop-color="#0176FF"/>
</linearGradient>
<linearGradient id="paint2_linear_131_210" x1="15.4635" y1="1.27693" x2="15.4635" y2="15.104" gradientUnits="userSpaceOnUse">
<stop stop-color="#56BEFF"/>
<stop offset="1" stop-color="#0176FF"/>
</linearGradient>
<linearGradient id="paint3_linear_131_210" x1="15.4637" y1="5.39122" x2="15.4637" y2="15.6891" gradientUnits="userSpaceOnUse">
<stop stop-color="#56BEFF"/>
<stop offset="1" stop-color="#0176FF"/>
</linearGradient>
<linearGradient id="paint4_linear_131_210" x1="15.4605" y1="18.2187" x2="15.4605" y2="18.6758" gradientUnits="userSpaceOnUse">
<stop stop-color="#56BEFF"/>
<stop offset="1" stop-color="#0176FF"/>
</linearGradient>
<linearGradient id="paint5_linear_131_210" x1="8.55521" y1="2.50929" x2="8.55521" y2="4.01264" gradientUnits="userSpaceOnUse">
<stop stop-color="#56BEFF"/>
<stop offset="1" stop-color="#0176FF"/>
</linearGradient>
<linearGradient id="paint6_linear_131_210" x1="10.3511" y1="2.50929" x2="10.3511" y2="4.01264" gradientUnits="userSpaceOnUse">
<stop stop-color="#56BEFF"/>
<stop offset="1" stop-color="#0176FF"/>
</linearGradient>
<linearGradient id="paint7_linear_131_210" x1="12.147" y1="2.50929" x2="12.147" y2="4.01264" gradientUnits="userSpaceOnUse">
<stop stop-color="#56BEFF"/>
<stop offset="1" stop-color="#0176FF"/>
</linearGradient>
<linearGradient id="paint8_linear_131_210" x1="18.9942" y1="3.03236" x2="18.9942" y2="3.48951" gradientUnits="userSpaceOnUse">
<stop stop-color="#56BEFF"/>
<stop offset="1" stop-color="#0176FF"/>
</linearGradient>
<linearGradient id="paint9_linear_131_210" x1="15.465" y1="13.9195" x2="15.465" y2="18.7795" gradientUnits="userSpaceOnUse">
<stop stop-color="#56BEFF"/>
<stop offset="1" stop-color="#0176FF"/>
</linearGradient>
<linearGradient id="paint10_linear_131_210" x1="15.465" y1="19.4194" x2="15.465" y2="30.7231" gradientUnits="userSpaceOnUse">
<stop stop-color="#56BEFF"/>
<stop offset="1" stop-color="#0176FF"/>
</linearGradient>
<linearGradient id="paint11_linear_131_210" x1="15.4666" y1="18.3223" x2="15.4666" y2="30.7219" gradientUnits="userSpaceOnUse">
<stop stop-color="#56BEFF"/>
<stop offset="1" stop-color="#0176FF"/>
</linearGradient>
<linearGradient id="paint12_linear_131_210" x1="22.5818" y1="13.917" x2="22.5818" y2="23.1311" gradientUnits="userSpaceOnUse">
<stop stop-color="#56BEFF"/>
<stop offset="1" stop-color="#0176FF"/>
</linearGradient>
<linearGradient id="paint13_linear_131_210" x1="8.34832" y1="13.917" x2="8.34832" y2="23.1311" gradientUnits="userSpaceOnUse">
<stop stop-color="#56BEFF"/>
<stop offset="1" stop-color="#0176FF"/>
</linearGradient>
<linearGradient id="paint14_linear_131_210" x1="22.2341" y1="28.2928" x2="22.2341" y2="30.0351" gradientUnits="userSpaceOnUse">
<stop stop-color="#56BEFF"/>
<stop offset="1" stop-color="#0176FF"/>
</linearGradient>
<linearGradient id="paint15_linear_131_210" x1="19.5496" y1="29.9325" x2="19.5496" y2="30.5499" gradientUnits="userSpaceOnUse">
<stop stop-color="#56BEFF"/>
<stop offset="1" stop-color="#0176FF"/>
</linearGradient>
<linearGradient id="paint16_linear_131_210" x1="15.4637" y1="7.26451" x2="15.4637" y2="16.8007" gradientUnits="userSpaceOnUse">
<stop stop-color="#2C8CC8"/>
<stop offset="1" stop-color="#0176FF"/>
</linearGradient>
<linearGradient id="paint17_linear_131_210" x1="15.4637" y1="9.01714" x2="15.4637" y2="15.0482" gradientUnits="userSpaceOnUse">
<stop stop-color="#2C8CC8"/>
<stop offset="1" stop-color="#0176FF"/>
</linearGradient>
<linearGradient id="paint18_linear_131_210" x1="4.91413" y1="3.94896" x2="4.91413" y2="4.82641" gradientUnits="userSpaceOnUse">
<stop stop-color="#56BEFF"/>
<stop offset="1" stop-color="#0176FF"/>
</linearGradient>
<linearGradient id="paint19_linear_131_210" x1="4.91413" y1="5.39084" x2="4.91413" y2="10.5407" gradientUnits="userSpaceOnUse">
<stop stop-color="#56BEFF"/>
<stop offset="1" stop-color="#0176FF"/>
</linearGradient>
<linearGradient id="paint20_linear_131_210" x1="27.9344" y1="2.0645" x2="27.9344" y2="6.19783" gradientUnits="userSpaceOnUse">
<stop stop-color="#56BEFF"/>
<stop offset="1" stop-color="#0176FF"/>
</linearGradient>
</defs>
</svg>
