<svg width="31" height="32" viewBox="0 0 31 32" fill="none" xmlns="http://www.w3.org/2000/svg">
<g clip-path="url(#clip0_131_198)">
<path d="M26.4486 25.1464C26.2598 24.9512 25.9537 24.9512 25.7649 25.1464C25.5761 25.3417 25.5761 25.6583 25.7649 25.8536L27.6987 27.8536C27.8875 28.0488 28.1937 28.0488 28.3825 27.8536C28.5712 27.6583 28.5712 27.3417 28.3825 27.1464L26.4486 25.1464Z" fill="url(#paint0_linear_131_198)"/>
<path d="M26.4486 22.1464C26.2598 21.9512 25.9537 21.9512 25.7649 22.1464C25.5761 22.3417 25.5761 22.6583 25.7649 22.8536L27.6987 24.8536C27.8875 25.0488 28.1937 25.0488 28.3825 24.8536C28.5712 24.6583 28.5712 24.3417 28.3825 24.1464L26.4486 22.1464Z" fill="url(#paint1_linear_131_198)"/>
<path d="M17.2628 21.1464C17.074 20.9512 16.7679 20.9512 16.5791 21.1464C16.3903 21.3417 16.3903 21.6583 16.5791 21.8536L19.4798 24.8536C19.6686 25.0488 19.9748 25.0488 20.1636 24.8536C20.3524 24.6583 20.3524 24.3417 20.1636 24.1464L17.2628 21.1464Z" fill="url(#paint2_linear_131_198)"/>
<path d="M17.2628 18.1464C17.074 17.9512 16.7679 17.9512 16.5791 18.1464C16.3903 18.3417 16.3903 18.6583 16.5791 18.8536L19.4798 21.8536C19.6686 22.0488 19.9748 22.0488 20.1636 21.8536C20.3524 21.6583 20.3524 21.3417 20.1636 21.1464L17.2628 18.1464Z" fill="url(#paint3_linear_131_198)"/>
<path d="M22.2391 15H14.5037C14.2367 15 14.0203 15.2239 14.0203 15.5V27.5C14.0203 27.7761 14.2367 28 14.5037 28H16.1084H17.0042H19.7386H20.3554H22.2391C22.5061 28 22.7225 27.7761 22.7225 27.5V15.5C22.7225 15.2239 22.5061 15 22.2391 15ZM21.7556 27H14.9872V16H21.7556V27Z" fill="url(#paint4_linear_131_198)"/>
<path d="M29.0075 20H26.5902V4.5C26.5887 3.11994 25.5073 2.00156 24.1729 2H2.90069C1.56629 2.00156 0.484909 3.11994 0.483398 4.5V21.5C0.484909 22.8801 1.56629 23.9984 2.90069 24H8.97148L7.8837 27H6.76836C5.96775 27.0009 5.31889 27.672 5.31798 28.5V29.5C5.31798 29.7761 5.53445 30 5.80144 30H22.239C22.864 30.0002 23.4645 29.7492 23.9139 29.3C24.1793 29.7354 24.6421 29.9997 25.1398 30H29.0075C29.8081 29.9991 30.4569 29.3281 30.4578 28.5V21.5C30.4569 20.6719 29.8081 20.0009 29.0075 20ZM1.45032 4.5C1.45122 3.67194 2.10002 3.00094 2.90069 3H24.1729C24.9735 3.00094 25.6223 3.67194 25.6232 4.5V5H1.45032V4.5ZM2.90069 23C2.10002 22.9991 1.45122 22.3281 1.45032 21.5V21H12.0864V23H2.90069ZM10.0041 24H12.0864V27H8.91637L10.0041 24ZM6.2849 29V28.5C6.2852 28.224 6.50149 28.0003 6.76836 28H12.1351C12.2067 28.3627 12.3558 28.7043 12.5712 29H6.2849ZM23.6894 27.5C23.6885 28.328 23.0396 28.9991 22.239 29H20.3554H19.7386H17.0041H16.1084H14.5037C13.7031 28.9991 13.0542 28.328 13.0533 27.5V15.5C13.0542 14.672 13.7031 14.0009 14.5037 14H22.239C23.0396 14.0009 23.6885 14.672 23.6894 15.5V27.5ZM22.239 13H16.6378L11.9448 8.14644C11.756 7.95119 11.4499 7.95119 11.2611 8.14644C11.0723 8.34169 11.0723 8.65831 11.2611 8.85356L15.2703 13H14.5037C14.0298 12.9995 13.5663 13.144 13.1716 13.4152L8.0772 8.1465C7.88841 7.95125 7.58226 7.95125 7.39347 8.1465C7.20468 8.34175 7.20468 8.65838 7.39347 8.85363L12.4879 14.1224C12.2256 14.5306 12.0859 15.0099 12.0864 15.5V16.2929L8.07714 12.1464C7.88835 11.9512 7.5822 11.9512 7.39341 12.1464C7.20462 12.3417 7.20462 12.6583 7.39341 12.8536L12.0864 17.7071V20H1.45032V6H25.6232V20H25.1398C24.975 19.9999 24.8116 20.029 24.6563 20.086V15.5C24.6548 14.1199 23.5734 13.0016 22.239 13ZM29.4909 28.5C29.4906 28.776 29.2743 28.9997 29.0075 29H25.1398C24.8729 28.9997 24.6566 28.776 24.6563 28.5V21.5C24.6566 21.224 24.8729 21.0003 25.1398 21H29.0075C29.2743 21.0003 29.4906 21.224 29.4909 21.5V28.5Z" fill="url(#paint5_linear_131_198)"/>
</g>
<defs>
<linearGradient id="paint0_linear_131_198" x1="27.0737" y1="25" x2="27.0737" y2="28" gradientUnits="userSpaceOnUse">
<stop stop-color="#61C8FF"/>
<stop offset="1" stop-color="#0176FF"/>
</linearGradient>
<linearGradient id="paint1_linear_131_198" x1="27.0737" y1="22" x2="27.0737" y2="25" gradientUnits="userSpaceOnUse">
<stop stop-color="#61C8FF"/>
<stop offset="1" stop-color="#0176FF"/>
</linearGradient>
<linearGradient id="paint2_linear_131_198" x1="18.3713" y1="21" x2="18.3713" y2="25" gradientUnits="userSpaceOnUse">
<stop stop-color="#61C8FF"/>
<stop offset="1" stop-color="#0176FF"/>
</linearGradient>
<linearGradient id="paint3_linear_131_198" x1="18.3713" y1="18" x2="18.3713" y2="22" gradientUnits="userSpaceOnUse">
<stop stop-color="#61C8FF"/>
<stop offset="1" stop-color="#0176FF"/>
</linearGradient>
<linearGradient id="paint4_linear_131_198" x1="18.3714" y1="15" x2="18.3714" y2="28" gradientUnits="userSpaceOnUse">
<stop stop-color="#61C8FF"/>
<stop offset="1" stop-color="#0176FF"/>
</linearGradient>
<linearGradient id="paint5_linear_131_198" x1="15.4706" y1="2" x2="15.4706" y2="30" gradientUnits="userSpaceOnUse">
<stop stop-color="#61C8FF"/>
<stop offset="1" stop-color="#0176FF"/>
</linearGradient>
<clipPath id="clip0_131_198">
<rect width="30.9414" height="32" fill="white"/>
</clipPath>
</defs>
</svg>
