<svg width="32" height="32" viewBox="0 0 32 32" fill="none" xmlns="http://www.w3.org/2000/svg">
<g clip-path="url(#clip0_131_186)">
<path d="M29.1474 7.75H27.697V8.75H29.1474C29.6792 8.75 30.1143 9.2 30.1143 9.75V25.25C30.1143 25.8 29.6792 26.25 29.1474 26.25H2.07373C1.54192 26.25 1.10681 25.8 1.10681 25.25V9.75C1.10681 9.2 1.54192 8.75 2.07373 8.75H4.00756V7.75H2.07373C1.01012 7.75 0.139893 8.65 0.139893 9.75V25.25C0.139893 26.35 1.01012 27.25 2.07373 27.25H12.2264V28.25H8.11696C7.85106 28.25 7.6335 28.475 7.6335 28.75C7.6335 29.025 7.85106 29.25 8.11696 29.25H23.1042C23.3701 29.25 23.5876 29.025 23.5876 28.75C23.5876 28.475 23.3701 28.25 23.1042 28.25H18.9948V27.25H29.1474C30.211 27.25 31.0812 26.35 31.0812 25.25V9.75C31.0812 8.65 30.211 7.75 29.1474 7.75ZM18.0279 28.25H13.1933V27.25H18.0279V28.25Z" fill="url(#paint0_linear_131_186)"/>
<path d="M25.2796 25.25C26.0773 25.25 26.73 24.575 26.73 23.75V4.25C26.73 3.425 26.0773 2.75 25.2796 2.75H6.42474C5.62703 2.75 4.97437 3.425 4.97437 4.25V23.75C4.97437 24.575 5.62703 25.25 6.42474 25.25H25.2796ZM5.94128 4.25C5.94128 3.975 6.15884 3.75 6.42474 3.75H25.2796C25.5455 3.75 25.7631 3.975 25.7631 4.25V6.75H5.94128V4.25ZM5.94128 23.75V7.75H25.7631V23.75C25.7631 24.025 25.5455 24.25 25.2796 24.25H6.42474C6.15884 24.25 5.94128 24.025 5.94128 23.75Z" fill="url(#paint1_linear_131_186)"/>
<path d="M24.3129 4.75H23.346C23.0801 4.75 22.8625 4.975 22.8625 5.25C22.8625 5.525 23.0801 5.75 23.346 5.75H24.3129C24.5788 5.75 24.7964 5.525 24.7964 5.25C24.7964 4.975 24.5788 4.75 24.3129 4.75Z" fill="url(#paint2_linear_131_186)"/>
<path d="M21.412 4.75H20.4451C20.1792 4.75 19.9617 4.975 19.9617 5.25C19.9617 5.525 20.1792 5.75 20.4451 5.75H21.412C21.6779 5.75 21.8955 5.525 21.8955 5.25C21.8955 4.975 21.6779 4.75 21.412 4.75Z" fill="url(#paint3_linear_131_186)"/>
<path d="M18.0279 19.5C17.1819 19.5 16.4325 19 16.0699 18.25L15.9007 18.425C15.7073 18.625 15.5139 18.775 15.2722 18.875C15.8524 19.85 16.8676 20.5 18.0279 20.5C19.7684 20.5 21.1704 19.05 21.1704 17.25C21.1704 15.45 19.7684 14 18.0279 14V14.35C18.0279 14.575 18.0038 14.8 17.9312 15H18.0279C19.2366 15 20.2035 16 20.2035 17.25C20.2035 18.5 19.2366 19.5 18.0279 19.5Z" fill="url(#paint4_linear_131_186)"/>
<path d="M17.8346 12.25H18.7532C18.9465 12.25 19.1157 12.425 19.1157 12.625V12.95C19.5025 13.05 19.8893 13.225 20.2277 13.425L20.4453 13.2C20.5178 13.125 20.6145 13.1 20.687 13.1C20.7595 13.1 20.8804 13.125 20.9287 13.2L21.944 14.25C22.089 14.4 22.089 14.625 21.944 14.775L21.7264 15C21.9198 15.35 22.089 15.75 22.1857 16.15H22.5C22.6933 16.15 22.8626 16.325 22.8626 16.525V18C22.8626 18.2 22.6933 18.375 22.5 18.375H22.1857C22.089 18.775 21.9198 19.175 21.7264 19.525L21.944 19.75C22.089 19.9 22.089 20.125 21.944 20.275L20.9287 21.3C20.8562 21.375 20.7595 21.4 20.687 21.4C20.6145 21.4 20.4936 21.375 20.4453 21.3L20.2035 21.075C19.8651 21.275 19.4783 21.45 19.0916 21.55V21.875C19.0916 22.075 18.9224 22.25 18.729 22.25H17.3028C17.1094 22.25 16.9402 22.075 16.9402 21.875V21.55C16.5534 21.45 16.1667 21.275 15.8282 21.075L15.6107 21.3C15.5382 21.375 15.4415 21.4 15.3689 21.4C15.2964 21.4 15.1756 21.375 15.1272 21.3L14.112 20.25C13.9669 20.1 13.9669 19.875 14.112 19.725L14.3295 19.5C14.2812 19.425 14.2328 19.325 14.1845 19.225C13.8702 19.5 13.4835 19.675 13.0483 19.725C13.0242 19.8 13.0242 19.9 13.0242 20C13.0242 20.375 13.1692 20.7 13.4109 20.975L14.4262 22.025C14.6679 22.275 15.0064 22.425 15.3689 22.425C15.5865 22.425 15.7799 22.375 15.9733 22.275C15.9974 22.275 16.0216 22.3 16.0458 22.3C16.215 22.85 16.7226 23.25 17.3028 23.25H18.7532C19.3333 23.25 19.8409 22.85 20.0101 22.3C20.0343 22.3 20.0585 22.275 20.0827 22.275C20.2761 22.375 20.4694 22.425 20.687 22.425C21.0496 22.425 21.3638 22.275 21.6297 22.025L22.645 20.975C22.8867 20.725 23.0318 20.375 23.0318 20C23.0318 19.775 22.9834 19.575 22.8867 19.375C22.8867 19.35 22.9109 19.325 22.9109 19.3C23.4427 19.125 23.8295 18.6 23.8295 18V16.5C23.8295 15.9 23.4427 15.375 22.9109 15.2C22.9109 15.175 22.8867 15.15 22.8867 15.125C22.9834 14.925 23.0318 14.725 23.0318 14.5C23.0318 14.125 22.8867 13.8 22.645 13.525L21.6297 12.475C21.388 12.225 21.0496 12.075 20.687 12.075C20.4694 12.075 20.2761 12.125 20.0827 12.225C20.0585 12.225 20.0343 12.2 20.0101 12.2C19.8409 11.65 19.3333 11.25 18.7532 11.25H17.3753C17.3995 11.35 17.3995 11.45 17.3995 11.55C17.5687 11.75 17.7379 12 17.8346 12.25Z" fill="url(#paint5_linear_131_186)"/>
<path d="M8.11703 15.525C8.06869 15.675 8.04452 15.8 8.04452 15.95C8.04452 16.3 8.16538 16.625 8.40711 16.875L9.22899 17.725C9.47072 17.975 9.78497 18.1 10.1234 18.1C10.2684 18.1 10.4135 18.075 10.5343 18.025C10.7277 18.475 11.1628 18.775 11.6705 18.775H12.8066C13.3142 18.775 13.7493 18.475 13.9427 18.025C14.0877 18.075 14.2086 18.1 14.3537 18.1C14.6921 18.1 15.0063 17.975 15.248 17.725L16.0699 16.875C16.3117 16.625 16.4325 16.3 16.4325 15.95C16.4325 15.8 16.4083 15.65 16.36 15.525C16.7951 15.325 17.0852 14.875 17.0852 14.35V13.175C17.0852 12.65 16.7951 12.2 16.36 12C16.4083 11.85 16.4325 11.725 16.4325 11.575C16.4325 11.225 16.3117 10.9 16.0699 10.65L15.248 9.8C15.0063 9.55 14.6921 9.425 14.3537 9.425C14.2086 9.425 14.0636 9.45 13.9427 9.5C13.7493 9.05 13.3142 8.75 12.8066 8.75H11.6705C11.1628 8.75 10.7277 9.05 10.5343 9.5C10.3893 9.45 10.2684 9.425 10.1234 9.425C9.78497 9.425 9.47072 9.55 9.22899 9.8L8.40711 10.65C8.16538 10.9 8.04452 11.225 8.04452 11.575C8.04452 11.725 8.06869 11.875 8.11703 12C7.68192 12.2 7.39185 12.65 7.39185 13.175V14.35C7.39185 14.85 7.68192 15.3 8.11703 15.525ZM8.35876 13.15C8.35876 12.975 8.47963 12.85 8.64884 12.85H8.89057C8.96309 12.525 9.10812 12.225 9.25316 11.925L9.08395 11.75C8.96309 11.625 8.96309 11.45 9.08395 11.325L9.90583 10.475C9.95418 10.425 10.0267 10.4 10.0992 10.4C10.1717 10.4 10.2443 10.425 10.2926 10.475L10.4618 10.65C10.7277 10.475 11.042 10.35 11.3562 10.275V10.025C11.3562 9.85 11.4771 9.725 11.6463 9.725H12.7824C12.9516 9.725 13.0725 9.85 13.0725 10.025V10.275C13.3867 10.35 13.6768 10.5 13.9669 10.65L14.1603 10.5C14.2086 10.45 14.2811 10.425 14.3537 10.425C14.4262 10.425 14.4987 10.45 14.547 10.5L15.3689 11.35C15.4898 11.475 15.4898 11.65 15.3689 11.775L15.1997 11.95C15.3689 12.225 15.4898 12.55 15.5623 12.875H15.804C15.9732 12.875 16.0941 13 16.0941 13.175V14.35C16.0941 14.525 15.9732 14.65 15.804 14.65H15.5623C15.4898 14.975 15.3447 15.275 15.1997 15.575L15.3689 15.75C15.4898 15.875 15.4898 16.05 15.3689 16.175L14.547 17C14.4987 17.05 14.4262 17.075 14.3537 17.075C14.2811 17.075 14.2086 17.05 14.1603 17L13.9911 16.825C13.7252 17 13.4109 17.125 13.0967 17.2V17.45C13.0967 17.625 12.9758 17.75 12.8066 17.75H11.6705C11.5012 17.75 11.3804 17.625 11.3804 17.45V17.2C11.0661 17.125 10.7761 16.975 10.486 16.825L10.2926 17C10.2443 17.05 10.1717 17.075 10.0992 17.075C10.0267 17.075 9.95418 17.05 9.90583 17L9.08395 16.15C8.96309 16.025 8.96309 15.85 9.08395 15.725L9.25316 15.55C9.08395 15.275 8.96309 14.95 8.89057 14.625H8.64884C8.47963 14.625 8.35876 14.5 8.35876 14.325V13.15Z" fill="url(#paint6_linear_131_186)"/>
<path d="M12.2263 16C13.435 16 14.4019 15 14.4019 13.75C14.4019 12.5 13.435 11.5 12.2263 11.5C11.0177 11.5 10.0508 12.5 10.0508 13.75C10.0508 15 11.0177 16 12.2263 16ZM12.2263 12.5C12.9032 12.5 13.435 13.05 13.435 13.75C13.435 14.45 12.9032 15 12.2263 15C11.5495 15 11.0177 14.45 11.0177 13.75C11.0177 13.05 11.5495 12.5 12.2263 12.5Z" fill="url(#paint7_linear_131_186)"/>
</g>
<defs>
<linearGradient id="paint0_linear_131_186" x1="15.6106" y1="7.75" x2="15.6106" y2="29.25" gradientUnits="userSpaceOnUse">
<stop stop-color="#61C8FF"/>
<stop offset="1" stop-color="#0176FF"/>
</linearGradient>
<linearGradient id="paint1_linear_131_186" x1="15.8522" y1="2.75" x2="15.8522" y2="25.25" gradientUnits="userSpaceOnUse">
<stop stop-color="#61C8FF"/>
<stop offset="1" stop-color="#0176FF"/>
</linearGradient>
<linearGradient id="paint2_linear_131_186" x1="23.8295" y1="4.75" x2="23.8295" y2="5.75" gradientUnits="userSpaceOnUse">
<stop stop-color="#61C8FF"/>
<stop offset="1" stop-color="#0176FF"/>
</linearGradient>
<linearGradient id="paint3_linear_131_186" x1="20.9286" y1="4.75" x2="20.9286" y2="5.75" gradientUnits="userSpaceOnUse">
<stop stop-color="#61C8FF"/>
<stop offset="1" stop-color="#0176FF"/>
</linearGradient>
<linearGradient id="paint4_linear_131_186" x1="18.2213" y1="14" x2="18.2213" y2="20.5" gradientUnits="userSpaceOnUse">
<stop stop-color="#61C8FF"/>
<stop offset="1" stop-color="#0176FF"/>
</linearGradient>
<linearGradient id="paint5_linear_131_186" x1="18.4268" y1="11.25" x2="18.4268" y2="23.25" gradientUnits="userSpaceOnUse">
<stop stop-color="#61C8FF"/>
<stop offset="1" stop-color="#0176FF"/>
</linearGradient>
<linearGradient id="paint6_linear_131_186" x1="12.2385" y1="8.75" x2="12.2385" y2="18.775" gradientUnits="userSpaceOnUse">
<stop stop-color="#61C8FF"/>
<stop offset="1" stop-color="#0176FF"/>
</linearGradient>
<linearGradient id="paint7_linear_131_186" x1="12.2263" y1="11.5" x2="12.2263" y2="16" gradientUnits="userSpaceOnUse">
<stop stop-color="#61C8FF"/>
<stop offset="1" stop-color="#0176FF"/>
</linearGradient>
<clipPath id="clip0_131_186">
<rect width="30.9414" height="32" fill="white" transform="translate(0.139893)"/>
</clipPath>
</defs>
</svg>
